<svg width="1150" height="340" viewBox="0 0 1150 340" fill="none" xmlns="http://www.w3.org/2000/svg">
<rect width="1150" height="340" fill="#1A1A1A"/>
<path d="M207.375 223H215.156V189.875H207.375V223ZM211.25 185.531C213.688 185.531 215.594 183.656 215.594 181.312C215.594 178.938 213.688 177.062 211.25 177.062C208.844 177.062 206.938 178.938 206.938 181.312C206.938 183.656 208.844 185.531 211.25 185.531ZM242.344 177.156C229.188 177.156 220.938 186.125 220.938 200.469C220.938 214.812 229.188 223.75 242.344 223.75C255.469 223.75 263.719 214.812 263.719 200.469C263.719 186.125 255.469 177.156 242.344 177.156ZM242.344 184.031C250.375 184.031 255.5 190.406 255.5 200.469C255.5 210.5 250.375 216.875 242.344 216.875C234.281 216.875 229.188 210.5 229.188 200.469C229.188 190.406 234.281 184.031 242.344 184.031ZM268.312 210.312C268.656 218.625 275.469 223.75 285.844 223.75C296.75 223.75 303.625 218.375 303.625 209.812C303.625 203.094 299.75 199.312 290.594 197.219L285.406 196.031C279.875 194.719 277.594 192.969 277.594 189.969C277.594 186.219 281.031 183.719 286.125 183.719C291.281 183.719 294.812 186.25 295.188 190.469H302.875C302.688 182.531 296.125 177.156 286.188 177.156C276.375 177.156 269.406 182.562 269.406 190.562C269.406 197 273.344 201 281.656 202.906L287.5 204.281C293.188 205.625 295.5 207.5 295.5 210.75C295.5 214.5 291.719 217.188 286.281 217.188C280.781 217.188 276.625 214.469 276.125 210.312H268.312Z" fill="url(#paint0_linear)"/>
<path d="M185.651 126C192.741 126 196.946 121.614 196.946 114.341C196.946 107.091 192.741 102.727 185.81 102.727H177.764V126H185.651ZM181.98 122.352V106.375H185.571C190.298 106.375 192.764 109.011 192.764 114.341C192.764 119.693 190.298 122.352 185.446 122.352H181.98ZM208.497 126.341C212.565 126.341 215.361 124.352 216.088 121.318L212.247 120.886C211.69 122.364 210.327 123.136 208.554 123.136C205.895 123.136 204.134 121.386 204.099 118.398H216.259V117.136C216.259 111.011 212.577 108.318 208.281 108.318C203.281 108.318 200.02 111.989 200.02 117.375C200.02 122.852 203.236 126.341 208.497 126.341ZM204.111 115.625C204.236 113.398 205.884 111.523 208.338 111.523C210.702 111.523 212.293 113.25 212.315 115.625H204.111ZM233.534 113.159C232.966 110.205 230.602 108.318 226.511 108.318C222.307 108.318 219.443 110.386 219.455 113.614C219.443 116.159 221.011 117.841 224.364 118.534L227.341 119.159C228.943 119.511 229.693 120.159 229.693 121.148C229.693 122.341 228.398 123.239 226.443 123.239C224.557 123.239 223.33 122.42 222.977 120.852L218.966 121.239C219.477 124.443 222.17 126.341 226.455 126.341C230.818 126.341 233.898 124.08 233.909 120.773C233.898 118.284 232.295 116.761 229 116.045L226.023 115.409C224.25 115.011 223.545 114.398 223.557 113.386C223.545 112.205 224.852 111.386 226.568 111.386C228.466 111.386 229.466 112.42 229.784 113.568L233.534 113.159ZM237.301 126H241.415V108.545H237.301V126ZM239.369 106.068C240.676 106.068 241.744 105.068 241.744 103.841C241.744 102.602 240.676 101.602 239.369 101.602C238.051 101.602 236.983 102.602 236.983 103.841C236.983 105.068 238.051 106.068 239.369 106.068ZM253.236 132.909C257.952 132.909 261.429 130.75 261.429 126.284V108.545H257.372V111.432H257.145C256.52 110.17 255.213 108.318 252.134 108.318C248.099 108.318 244.929 111.477 244.929 117.216C244.929 122.909 248.099 125.75 252.122 125.75C255.111 125.75 256.509 124.148 257.145 122.864H257.349V126.17C257.349 128.739 255.645 129.795 253.304 129.795C250.827 129.795 249.736 128.625 249.236 127.602L245.531 128.5C246.281 130.943 248.793 132.909 253.236 132.909ZM253.27 122.523C250.554 122.523 249.122 120.409 249.122 117.193C249.122 114.023 250.531 111.693 253.27 111.693C255.918 111.693 257.372 113.886 257.372 117.193C257.372 120.523 255.895 122.523 253.27 122.523ZM269.759 115.773C269.759 113.25 271.281 111.795 273.452 111.795C275.577 111.795 276.849 113.193 276.849 115.523V126H280.963V114.886C280.974 110.705 278.588 108.318 274.986 108.318C272.372 108.318 270.577 109.568 269.781 111.511H269.577V108.545H265.645V126H269.759V115.773ZM301.923 108.545H298.298V107.17C298.298 105.807 298.866 105.045 300.401 105.045C301.048 105.045 301.594 105.193 301.935 105.295L302.764 102.114C302.23 101.932 301.06 101.636 299.639 101.636C296.605 101.636 294.185 103.375 294.185 106.898V108.545H291.605V111.727H294.185V126H298.298V111.727H301.923V108.545ZM312.102 126.341C317.216 126.341 320.466 122.739 320.466 117.341C320.466 111.932 317.216 108.318 312.102 108.318C306.989 108.318 303.739 111.932 303.739 117.341C303.739 122.739 306.989 126.341 312.102 126.341ZM312.125 123.045C309.295 123.045 307.909 120.523 307.909 117.33C307.909 114.136 309.295 111.58 312.125 111.58C314.909 111.58 316.295 114.136 316.295 117.33C316.295 120.523 314.909 123.045 312.125 123.045ZM323.957 126H328.071V115.739C328.071 113.523 329.741 111.955 332.003 111.955C332.696 111.955 333.56 112.08 333.912 112.193V108.409C333.537 108.341 332.889 108.295 332.435 108.295C330.435 108.295 328.764 109.432 328.128 111.455H327.946V108.545H323.957V126Z" fill="white"/>
<path d="M801.534 102.727H796.909L805.102 126H810.307L818.511 102.727H813.875L807.83 121.045H807.591L801.534 102.727ZM824.574 126.352C827.312 126.352 828.949 125.068 829.699 123.602H829.835V126H833.79V114.318C833.79 109.705 830.028 108.318 826.699 108.318C823.028 108.318 820.21 109.955 819.301 113.136L823.142 113.682C823.551 112.489 824.71 111.466 826.722 111.466C828.631 111.466 829.676 112.443 829.676 114.159V114.227C829.676 115.409 828.438 115.466 825.358 115.795C821.972 116.159 818.733 117.17 818.733 121.102C818.733 124.534 821.244 126.352 824.574 126.352ZM825.642 123.33C823.926 123.33 822.699 122.545 822.699 121.034C822.699 119.455 824.074 118.795 825.915 118.534C826.994 118.386 829.153 118.114 829.688 117.682V119.739C829.688 121.682 828.119 123.33 825.642 123.33ZM842.04 102.727H837.926V126H842.04V102.727ZM846.27 126H850.384V108.545H846.27V126ZM848.338 106.068C849.645 106.068 850.713 105.068 850.713 103.841C850.713 102.602 849.645 101.602 848.338 101.602C847.02 101.602 845.952 102.602 845.952 103.841C845.952 105.068 847.02 106.068 848.338 106.068ZM861.091 126.307C864.091 126.307 865.443 124.523 866.091 123.25H866.341V126H870.386V102.727H866.261V111.432H866.091C865.466 110.17 864.182 108.318 861.102 108.318C857.068 108.318 853.898 111.477 853.898 117.295C853.898 123.045 856.977 126.307 861.091 126.307ZM862.239 122.932C859.523 122.932 858.091 120.545 858.091 117.273C858.091 114.023 859.5 111.693 862.239 111.693C864.886 111.693 866.341 113.886 866.341 117.273C866.341 120.659 864.864 122.932 862.239 122.932ZM879.793 126.352C882.531 126.352 884.168 125.068 884.918 123.602H885.054V126H889.009V114.318C889.009 109.705 885.247 108.318 881.918 108.318C878.247 108.318 875.429 109.955 874.52 113.136L878.361 113.682C878.77 112.489 879.929 111.466 881.94 111.466C883.849 111.466 884.895 112.443 884.895 114.159V114.227C884.895 115.409 883.656 115.466 880.577 115.795C877.19 116.159 873.952 117.17 873.952 121.102C873.952 124.534 876.463 126.352 879.793 126.352ZM880.861 123.33C879.145 123.33 877.918 122.545 877.918 121.034C877.918 119.455 879.293 118.795 881.134 118.534C882.213 118.386 884.372 118.114 884.906 117.682V119.739C884.906 121.682 883.338 123.33 880.861 123.33ZM901.861 108.545H898.418V104.364H894.304V108.545H891.827V111.727H894.304V121.432C894.281 124.716 896.668 126.33 899.759 126.239C900.929 126.205 901.736 125.977 902.179 125.83L901.486 122.614C901.259 122.67 900.793 122.773 900.281 122.773C899.247 122.773 898.418 122.409 898.418 120.75V111.727H901.861V108.545ZM912.841 126.341C916.909 126.341 919.705 124.352 920.432 121.318L916.591 120.886C916.034 122.364 914.67 123.136 912.898 123.136C910.239 123.136 908.477 121.386 908.443 118.398H920.602V117.136C920.602 111.011 916.92 108.318 912.625 108.318C907.625 108.318 904.364 111.989 904.364 117.375C904.364 122.852 907.58 126.341 912.841 126.341ZM908.455 115.625C908.58 113.398 910.227 111.523 912.682 111.523C915.045 111.523 916.636 113.25 916.659 115.625H908.455ZM935.19 126L937.111 120.261H945.861L947.793 126H952.293L944.088 102.727H938.884L930.69 126H935.19ZM938.247 116.875L941.395 107.5H941.577L944.724 116.875H938.247ZM955.358 126H959.574V117.477H963.869L968.438 126H973.142L968.108 116.773C970.847 115.67 972.29 113.33 972.29 110.17C972.29 105.727 969.426 102.727 964.085 102.727H955.358V126ZM959.574 113.977V106.25H963.438C966.585 106.25 967.994 107.693 967.994 110.17C967.994 112.648 966.585 113.977 963.46 113.977H959.574Z" fill="white"/>
<g clip-path="url(#clip0)">
<path d="M900.333 192.439C908.958 193.392 915.667 200.704 915.667 209.583V244.083C915.667 245.142 914.809 246 913.75 246C912.692 246 911.833 245.142 911.833 244.083V209.583C911.833 202.824 906.835 197.233 900.333 196.303L900.333 219.167C900.333 223.401 896.901 226.833 892.667 226.833C889.244 226.833 886.22 225.915 883.652 224.076C882.676 223.376 881.505 223 880.302 223C879.317 223 878.525 223.571 878.243 224.417C877.817 225.693 878.073 226.936 878.863 227.825L892.183 242.81C892.886 243.601 892.815 244.813 892.024 245.516C891.232 246.219 890.021 246.148 889.318 245.357L879.633 234.462C879.509 234.487 879.381 234.5 879.25 234.5H863.917C858.624 234.5 854.333 230.21 854.333 224.917V163.583C854.333 158.291 858.624 154 863.917 154L890.75 154C896.043 154 900.334 158.291 900.334 163.583L900.333 192.439ZM875.998 230.372C874.297 228.458 873.747 225.781 874.557 223.352C875.41 220.793 877.667 219.167 880.21 219.167C882.306 219.167 884.257 219.794 885.885 220.959C887.783 222.319 890.024 223 892.667 223C894.784 223 896.5 221.284 896.5 219.167L896.5 163.583C896.5 160.408 893.926 157.833 890.75 157.833L863.917 157.833C860.741 157.833 858.167 160.408 858.167 163.583V224.917C858.167 228.092 860.741 230.667 863.917 230.667H876.26L875.998 230.372ZM871.583 165.5C870.525 165.5 869.667 164.642 869.667 163.583C869.667 162.525 870.525 161.667 871.583 161.667H883.083C884.142 161.667 885 162.525 885 163.583C885 164.642 884.142 165.5 883.083 165.5H871.583Z" fill="url(#paint1_linear)"/>
</g>
<path d="M482.183 102.727H477.967V126H482.183V102.727ZM486.567 126H490.68V115.386C490.68 113.239 492.112 111.784 493.885 111.784C495.624 111.784 496.817 112.955 496.817 114.75V126H500.851V115.114C500.851 113.148 502.021 111.784 504.01 111.784C505.669 111.784 506.987 112.761 506.987 114.92V126H511.112V114.284C511.112 110.386 508.862 108.318 505.658 108.318C503.124 108.318 501.192 109.568 500.419 111.511H500.237C499.567 109.534 497.874 108.318 495.521 108.318C493.18 108.318 491.43 109.523 490.703 111.511H490.499V108.545H486.567V126ZM515.286 132.545H519.399V123.25H519.57C520.217 124.523 521.57 126.307 524.57 126.307C528.683 126.307 531.763 123.045 531.763 117.295C531.763 111.477 528.592 108.318 524.558 108.318C521.479 108.318 520.195 110.17 519.57 111.432H519.331V108.545H515.286V132.545ZM519.32 117.273C519.32 113.886 520.774 111.693 523.422 111.693C526.161 111.693 527.57 114.023 527.57 117.273C527.57 120.545 526.138 122.932 523.422 122.932C520.797 122.932 519.32 120.659 519.32 117.273ZM535.286 126H539.399V115.739C539.399 113.523 541.07 111.955 543.331 111.955C544.024 111.955 544.888 112.08 545.24 112.193V108.409C544.865 108.341 544.217 108.295 543.763 108.295C541.763 108.295 540.092 109.432 539.456 111.455H539.274V108.545H535.286V126ZM554.868 126.341C559.982 126.341 563.232 122.739 563.232 117.341C563.232 111.932 559.982 108.318 554.868 108.318C549.754 108.318 546.504 111.932 546.504 117.341C546.504 122.739 549.754 126.341 554.868 126.341ZM554.891 123.045C552.061 123.045 550.675 120.523 550.675 117.33C550.675 114.136 552.061 111.58 554.891 111.58C557.675 111.58 559.061 114.136 559.061 117.33C559.061 120.523 557.675 123.045 554.891 123.045ZM581.72 108.545H577.345L573.322 121.511H573.141L569.129 108.545H564.743L570.959 126H575.504L581.72 108.545ZM591.7 126.341C595.768 126.341 598.564 124.352 599.291 121.318L595.45 120.886C594.893 122.364 593.53 123.136 591.757 123.136C589.098 123.136 587.337 121.386 587.303 118.398H599.462V117.136C599.462 111.011 595.78 108.318 591.484 108.318C586.484 108.318 583.223 111.989 583.223 117.375C583.223 122.852 586.439 126.341 591.7 126.341ZM587.314 115.625C587.439 113.398 589.087 111.523 591.541 111.523C593.905 111.523 595.496 113.25 595.518 115.625H587.314ZM625.732 102.727V117.58C625.732 120.5 623.697 122.591 620.504 122.591C617.3 122.591 615.277 120.5 615.277 117.58V102.727H611.061V117.932C611.061 122.932 614.811 126.352 620.504 126.352C626.175 126.352 629.947 122.932 629.947 117.932V102.727H625.732ZM638.053 102.727H633.223L640.484 114.364L633.132 126H637.996L643.178 117.534H643.359L648.541 126H653.428L646.143 114.364L653.314 102.727H648.507L643.359 111.25H643.178L638.053 102.727Z" fill="white"/>
<path fill-rule="evenodd" clip-rule="evenodd" d="M528.667 200C528.667 179.933 544.933 163.667 565 163.667C585.066 163.667 601.333 179.933 601.333 200C601.333 220.066 585.066 236.333 565 236.333C544.933 236.333 528.667 220.066 528.667 200ZM565 159.667C542.724 159.667 524.667 177.724 524.667 200C524.667 222.275 542.724 240.333 565 240.333C587.275 240.333 605.333 222.275 605.333 200C605.333 177.724 587.275 159.667 565 159.667ZM550.909 206.099C550.214 205.547 549.209 205.509 548.467 206.067L550.909 206.099ZM550.909 206.099L548.467 206.067C547.583 206.729 547.404 207.983 548.067 208.867L549.667 207.667C548.067 208.867 548.067 208.867 548.068 208.868L548.069 208.869L548.071 208.873L548.078 208.882L548.099 208.909L548.132 208.952L548.165 208.994C548.221 209.064 548.3 209.162 548.4 209.282C548.602 209.522 548.893 209.854 549.271 210.248C550.024 211.035 551.131 212.076 552.563 213.117C555.419 215.195 559.657 217.333 565 217.333C570.343 217.333 574.58 215.195 577.437 213.117C578.869 212.076 579.975 211.035 580.729 210.248C581.107 209.854 581.398 209.522 581.599 209.282C581.7 209.162 581.779 209.064 581.834 208.994C581.862 208.959 581.884 208.93 581.901 208.909L581.921 208.882L581.928 208.873L581.931 208.869L581.932 208.868C581.933 208.867 581.933 208.867 580.404 207.72L581.933 208.867C582.596 207.983 582.417 206.729 581.533 206.067C580.651 205.405 579.4 205.582 578.736 206.462L578.735 206.464L550.909 206.099L550.909 206.099ZM550.909 206.099C551.039 206.202 551.159 206.323 551.263 206.462L551.268 206.468L551.28 206.484L551.302 206.511C551.335 206.553 551.389 206.621 551.464 206.71C551.615 206.889 551.847 207.156 552.159 207.481C552.783 208.132 553.712 209.007 554.916 209.882C557.33 211.638 560.759 213.333 565 213.333C569.24 213.333 572.669 211.638 575.084 209.882C576.287 209.007 577.217 208.132 577.841 207.481C578.152 207.156 578.385 206.889 578.535 206.71C578.611 206.621 578.665 206.553 578.698 206.511C578.715 206.49 578.726 206.476 578.732 206.468L578.734 206.465L550.909 206.099ZM549.5 188.5C549.5 186.291 551.291 184.5 553.5 184.5H553.538C555.747 184.5 557.538 186.291 557.538 188.5C557.538 190.709 555.747 192.5 553.538 192.5H553.5C551.291 192.5 549.5 190.709 549.5 188.5ZM576.5 184.5C574.291 184.5 572.5 186.291 572.5 188.5C572.5 190.709 574.291 192.5 576.5 192.5H576.538C578.747 192.5 580.538 190.709 580.538 188.5C580.538 186.291 578.747 184.5 576.538 184.5H576.5Z" fill="url(#paint2_linear)"/>
<defs>
<linearGradient id="paint0_linear" x1="204" y1="162" x2="308.56" y2="165.702" gradientUnits="userSpaceOnUse">
<stop stop-color="#2CA1F5"/>
<stop offset="1" stop-color="#4CE1AB"/>
</linearGradient>
<linearGradient id="paint1_linear" x1="854.333" y1="154" x2="917.265" y2="155.107" gradientUnits="userSpaceOnUse">
<stop stop-color="#2CA1F5"/>
<stop offset="1" stop-color="#4CE1AB"/>
</linearGradient>
<linearGradient id="paint2_linear" x1="524.667" y1="159.667" x2="607.404" y2="161.849" gradientUnits="userSpaceOnUse">
<stop stop-color="#2CA1F5"/>
<stop offset="1" stop-color="#4CE1AB"/>
</linearGradient>
<clipPath id="clip0">
<rect width="92" height="92" fill="white" transform="translate(839 154)"/>
</clipPath>
</defs>
</svg>
