<svg width="1150" height="172" viewBox="0 0 1150 172" fill="none" xmlns="http://www.w3.org/2000/svg">
<rect width="1150" height="172" fill="#1A1A1A"/>
<g filter="url(#filter0_d)">
<path d="M392.195 78.2614H399.388V98H403.57V78.2614H410.763V74.7273H392.195V78.2614ZM418.274 87.7727C418.274 85.25 419.842 83.7955 422.047 83.7955C424.206 83.7955 425.479 85.1705 425.479 87.5227V98H429.592V86.8864C429.592 82.6705 427.206 80.3182 423.581 80.3182C420.899 80.3182 419.195 81.5341 418.388 83.5114H418.183V74.7273H414.161V98H418.274V87.7727ZM438.808 98.3523C441.547 98.3523 443.183 97.0682 443.933 95.6023H444.07V98H448.024V86.3182C448.024 81.7045 444.263 80.3182 440.933 80.3182C437.263 80.3182 434.445 81.9545 433.536 85.1364L437.376 85.6818C437.786 84.4886 438.945 83.4659 440.956 83.4659C442.865 83.4659 443.911 84.4432 443.911 86.1591V86.2273C443.911 87.4091 442.672 87.4659 439.592 87.7955C436.206 88.1591 432.967 89.1705 432.967 93.1023C432.967 96.5341 435.479 98.3523 438.808 98.3523ZM439.876 95.3295C438.161 95.3295 436.933 94.5455 436.933 93.0341C436.933 91.4545 438.308 90.7955 440.149 90.5341C441.229 90.3864 443.388 90.1136 443.922 89.6818V91.7386C443.922 93.6818 442.354 95.3295 439.876 95.3295ZM456.274 87.7727C456.274 85.25 457.797 83.7955 459.967 83.7955C462.092 83.7955 463.365 85.1932 463.365 87.5227V98H467.479V86.8864C467.49 82.7045 465.104 80.3182 461.501 80.3182C458.888 80.3182 457.092 81.5682 456.297 83.5114H456.092V80.5455H452.161V98H456.274V87.7727ZM471.661 98H475.774V92.1364L477.274 90.5341L482.615 98H487.536L480.376 88.0795L487.138 80.5455H482.331L476.058 87.5568H475.774V74.7273H471.661V98ZM500.374 104.545C503.578 104.545 505.43 102.898 506.419 100.114L513.43 80.5682L509.033 80.5455L504.999 93.7273H504.817L500.794 80.5455H496.43L502.76 98.3636L502.408 99.3068C501.646 101.295 500.442 101.432 498.646 100.909L497.692 104.114C498.249 104.341 499.249 104.545 500.374 104.545ZM523.305 98.3409C528.419 98.3409 531.669 94.7386 531.669 89.3409C531.669 83.9318 528.419 80.3182 523.305 80.3182C518.192 80.3182 514.942 83.9318 514.942 89.3409C514.942 94.7386 518.192 98.3409 523.305 98.3409ZM523.328 95.0455C520.499 95.0455 519.112 92.5227 519.112 89.3295C519.112 86.1364 520.499 83.5795 523.328 83.5795C526.112 83.5795 527.499 86.1364 527.499 89.3295C527.499 92.5227 526.112 95.0455 523.328 95.0455ZM546.286 90.6591C546.286 93.3182 544.388 94.6364 542.57 94.6364C540.592 94.6364 539.274 93.2386 539.274 91.0227V80.5455H535.161V91.6591C535.161 95.8523 537.547 98.2273 540.979 98.2273C543.592 98.2273 545.433 96.8523 546.229 94.8977H546.411V98H550.399V80.5455H546.286V90.6591ZM571.408 80.5455H567.783V79.1705C567.783 77.8068 568.351 77.0455 569.885 77.0455C570.533 77.0455 571.078 77.1932 571.419 77.2955L572.249 74.1136C571.714 73.9318 570.544 73.6364 569.124 73.6364C566.089 73.6364 563.669 75.375 563.669 78.8977V80.5455H561.089V83.7273H563.669V98H567.783V83.7273H571.408V80.5455ZM581.587 98.3409C586.7 98.3409 589.95 94.7386 589.95 89.3409C589.95 83.9318 586.7 80.3182 581.587 80.3182C576.473 80.3182 573.223 83.9318 573.223 89.3409C573.223 94.7386 576.473 98.3409 581.587 98.3409ZM581.609 95.0455C578.78 95.0455 577.393 92.5227 577.393 89.3295C577.393 86.1364 578.78 83.5795 581.609 83.5795C584.393 83.5795 585.78 86.1364 585.78 89.3295C585.78 92.5227 584.393 95.0455 581.609 95.0455ZM593.442 98H597.555V87.7386C597.555 85.5227 599.226 83.9545 601.487 83.9545C602.18 83.9545 603.044 84.0795 603.396 84.1932V80.4091C603.021 80.3409 602.374 80.2955 601.919 80.2955C599.919 80.2955 598.249 81.4318 597.612 83.4545H597.43V80.5455H593.442V98ZM614.067 98H618.18V87.7386C618.18 85.5227 619.851 83.9545 622.112 83.9545C622.805 83.9545 623.669 84.0795 624.021 84.1932V80.4091C623.646 80.3409 622.999 80.2955 622.544 80.2955C620.544 80.2955 618.874 81.4318 618.237 83.4545H618.055V80.5455H614.067V98ZM633.763 98.3409C637.831 98.3409 640.626 96.3523 641.354 93.3182L637.513 92.8864C636.956 94.3636 635.592 95.1364 633.82 95.1364C631.161 95.1364 629.399 93.3864 629.365 90.3977H641.524V89.1364C641.524 83.0114 637.842 80.3182 633.547 80.3182C628.547 80.3182 625.286 83.9886 625.286 89.375C625.286 94.8523 628.501 98.3409 633.763 98.3409ZM629.376 87.625C629.501 85.3977 631.149 83.5227 633.604 83.5227C635.967 83.5227 637.558 85.25 637.581 87.625H629.376ZM650.027 98.3523C652.766 98.3523 654.402 97.0682 655.152 95.6023H655.288V98H659.243V86.3182C659.243 81.7045 655.482 80.3182 652.152 80.3182C648.482 80.3182 645.663 81.9545 644.754 85.1364L648.595 85.6818C649.004 84.4886 650.163 83.4659 652.175 83.4659C654.084 83.4659 655.129 84.4432 655.129 86.1591V86.2273C655.129 87.4091 653.891 87.4659 650.811 87.7955C647.425 88.1591 644.186 89.1705 644.186 93.1023C644.186 96.5341 646.697 98.3523 650.027 98.3523ZM651.095 95.3295C649.379 95.3295 648.152 94.5455 648.152 93.0341C648.152 91.4545 649.527 90.7955 651.368 90.5341C652.447 90.3864 654.607 90.1136 655.141 89.6818V91.7386C655.141 93.6818 653.572 95.3295 651.095 95.3295ZM669.857 98.3068C672.857 98.3068 674.209 96.5227 674.857 95.25H675.107V98H679.152V74.7273H675.027V83.4318H674.857C674.232 82.1705 672.947 80.3182 669.868 80.3182C665.834 80.3182 662.663 83.4773 662.663 89.2955C662.663 95.0455 665.743 98.3068 669.857 98.3068ZM671.004 94.9318C668.288 94.9318 666.857 92.5455 666.857 89.2727C666.857 86.0227 668.266 83.6932 671.004 83.6932C673.652 83.6932 675.107 85.8864 675.107 89.2727C675.107 92.6591 673.629 94.9318 671.004 94.9318ZM683.536 98H687.649V80.5455H683.536V98ZM685.604 78.0682C686.911 78.0682 687.979 77.0682 687.979 75.8409C687.979 74.6023 686.911 73.6023 685.604 73.6023C684.286 73.6023 683.217 74.6023 683.217 75.8409C683.217 77.0682 684.286 78.0682 685.604 78.0682ZM695.993 87.7727C695.993 85.25 697.516 83.7955 699.686 83.7955C701.811 83.7955 703.084 85.1932 703.084 87.5227V98H707.197V86.8864C707.209 82.7045 704.822 80.3182 701.22 80.3182C698.607 80.3182 696.811 81.5682 696.016 83.5114H695.811V80.5455H691.879V98H695.993V87.7727ZM718.97 104.909C723.686 104.909 727.163 102.75 727.163 98.2841V80.5455H723.107V83.4318H722.879C722.254 82.1705 720.947 80.3182 717.868 80.3182C713.834 80.3182 710.663 83.4773 710.663 89.2159C710.663 94.9091 713.834 97.75 717.857 97.75C720.845 97.75 722.243 96.1477 722.879 94.8636H723.084V98.1705C723.084 100.739 721.379 101.795 719.038 101.795C716.561 101.795 715.47 100.625 714.97 99.6023L711.266 100.5C712.016 102.943 714.527 104.909 718.97 104.909ZM719.004 94.5227C716.288 94.5227 714.857 92.4091 714.857 89.1932C714.857 86.0227 716.266 83.6932 719.004 83.6932C721.652 83.6932 723.107 85.8864 723.107 89.1932C723.107 92.5227 721.629 94.5227 719.004 94.5227ZM741.851 98.25C743.192 98.25 744.339 97.1364 744.351 95.75C744.339 94.3864 743.192 93.2727 741.851 93.2727C740.464 93.2727 739.339 94.3864 739.351 95.75C739.339 97.1364 740.464 98.25 741.851 98.25ZM741.851 85.7841C743.192 85.7841 744.339 84.6705 744.351 83.2841C744.339 81.9205 743.192 80.8068 741.851 80.8068C740.464 80.8068 739.339 81.9205 739.351 83.2841C739.339 84.6705 740.464 85.7841 741.851 85.7841ZM755.939 88.5114C755.939 82.8409 754.428 78.125 751.439 74.0795H747.564C749.871 77.0795 751.655 83.125 751.655 88.5114C751.655 93.9091 749.871 99.9545 747.564 102.955H751.439C754.428 98.9091 755.939 94.1818 755.939 88.5114Z" fill="url(#paint0_linear)"/>
</g>
<defs>
<filter id="filter0_d" x="368.195" y="53.6025" width="411.744" height="79.3068" filterUnits="userSpaceOnUse" color-interpolation-filters="sRGB">
<feFlood flood-opacity="0" result="BackgroundImageFix"/>
<feColorMatrix in="SourceAlpha" type="matrix" values="0 0 0 0 0 0 0 0 0 0 0 0 0 0 0 0 0 0 127 0"/>
<feOffset dy="4"/>
<feGaussianBlur stdDeviation="12"/>
<feColorMatrix type="matrix" values="0 0 0 0 0 0 0 0 0 0 0 0 0 0 0 0 0 0 0.48 0"/>
<feBlend mode="normal" in2="BackgroundImageFix" result="effect1_dropShadow"/>
<feBlend mode="normal" in="SourceGraphic" in2="effect1_dropShadow" result="shape"/>
</filter>
<linearGradient id="paint0_linear" x1="391" y1="86.0001" x2="704.793" y2="213.378" gradientUnits="userSpaceOnUse">
<stop stop-color="#2CA1F5"/>
<stop offset="1" stop-color="#4CE1AB"/>
</linearGradient>
</defs>
</svg>
