<svg width="1150" height="340" viewBox="0 0 1150 340" fill="none" xmlns="http://www.w3.org/2000/svg">
<rect width="1150" height="340" fill="#1A1A1A"/>
<path d="M175.739 141H177.996L179.651 131.003H185.41C185.748 131.003 186.062 130.991 186.388 130.967L190.131 141H192.727L188.742 130.52C192.002 129.506 194.018 126.958 194.574 123.674C195.286 119.327 193.077 116.273 187.825 116.273H179.844L175.739 141ZM180.001 128.938L181.763 118.301H187.426C191.338 118.301 192.884 120.414 192.352 123.674C191.821 126.898 189.587 128.938 185.7 128.938H180.001ZM203.991 141.386C207.722 141.386 210.536 139.37 211.767 137.04L209.847 136.376C208.857 138.042 206.95 139.418 204.293 139.418C200.357 139.418 198.462 137.016 199.186 132.367H213.011L213.18 131.305C214.218 125.111 210.874 122.201 206.853 122.201C202.048 122.201 198.063 126.222 197.134 131.836C196.192 137.462 198.8 141.386 203.991 141.386ZM199.512 130.472C200.273 127.175 203.279 124.157 206.563 124.157C209.896 124.157 211.731 126.898 211.127 130.472H199.512ZM222.963 141.386C226.319 141.386 228.251 139.249 229.289 137.559H229.543L228.963 141H231.052L235.157 116.273H233.008L231.39 125.992H231.197C230.738 124.326 229.555 122.201 226.15 122.201C221.586 122.201 217.855 126.065 216.901 131.776C215.96 137.535 218.387 141.386 222.963 141.386ZM223.421 139.418C219.727 139.418 218.35 136.062 219.075 131.739C219.775 127.465 222.311 124.157 226.029 124.157C229.651 124.157 231.209 127.296 230.472 131.739C229.724 136.219 227.019 139.418 223.421 139.418ZM244.632 141.386C248.363 141.386 251.176 139.37 252.408 137.04L250.488 136.376C249.498 138.042 247.59 139.418 244.934 139.418C240.998 139.418 239.102 137.016 239.827 132.367H253.651L253.82 131.305C254.859 125.111 251.514 122.201 247.494 122.201C242.688 122.201 238.704 126.222 237.774 131.836C236.832 137.462 239.44 141.386 244.632 141.386ZM240.153 130.472C240.913 127.175 243.92 124.157 247.204 124.157C250.536 124.157 252.371 126.898 251.768 130.472H240.153ZM271.813 126.523C271.343 123.843 269.64 122.201 266.223 122.201C262.492 122.201 259.426 124.314 258.919 127.369C258.496 129.856 259.752 131.546 262.855 132.343L265.74 133.067C267.72 133.55 268.529 134.553 268.264 136.062C267.962 137.982 265.837 139.455 262.975 139.455C260.464 139.455 259.063 138.308 258.931 136.122L256.769 136.605C256.914 139.696 259.1 141.386 262.746 141.386C266.827 141.386 269.99 139.153 270.509 136.026C270.92 133.526 269.64 131.872 266.646 131.099L263.941 130.411C261.744 129.844 260.838 128.902 261.104 127.332C261.406 125.449 263.422 124.097 265.945 124.097C268.445 124.097 269.423 125.388 269.749 127.055L271.813 126.523ZM274.394 141H276.555L279.646 122.455H277.485L274.394 141ZM279.344 119.231C280.214 119.231 280.95 118.543 280.974 117.722C280.999 116.852 280.274 116.14 279.381 116.14C278.511 116.14 277.775 116.828 277.751 117.649C277.727 118.518 278.439 119.231 279.344 119.231ZM288.155 148.341C292.538 148.341 296.124 146.204 296.921 141.483L300.06 122.455H297.959L297.38 125.992H297.162C296.68 124.326 295.496 122.201 292.091 122.201C287.503 122.201 283.785 126.04 282.867 131.679C281.913 137.366 284.533 140.807 288.976 140.807C292.309 140.807 294.265 138.875 295.255 137.173H295.448L294.796 141.35C294.216 144.803 291.657 146.409 288.385 146.409C285.185 146.409 283.99 144.888 283.447 143.475L281.491 144.622C282.239 146.735 284.352 148.341 288.155 148.341ZM289.459 138.839C285.765 138.839 284.316 135.893 285.016 131.643C285.716 127.465 288.204 124.157 291.947 124.157C295.569 124.157 297.138 127.296 296.414 131.643C295.677 136.122 293.021 138.839 289.459 138.839ZM306.728 129.409C307.295 126.173 309.759 124.181 312.68 124.181C315.554 124.181 317.015 126.089 316.52 129.119L314.54 141H316.689L318.705 128.987C319.43 124.592 317.256 122.213 313.538 122.213C310.821 122.213 308.708 123.469 307.549 125.364H307.356L307.839 122.455H305.75L302.659 141H304.808L306.728 129.409ZM342.307 122.455H338.371L339.107 118.011H336.946L336.209 122.455H333.456L333.143 124.326H335.907L333.867 136.665C333.372 139.696 335.485 141.278 337.851 141.278C338.745 141.278 339.373 141.109 339.844 140.952L339.687 139.008C339.361 139.08 338.974 139.177 338.407 139.177C336.946 139.177 335.702 138.489 336.089 136.158L338.057 124.326H342.005L342.307 122.455ZM348.564 129.409C349.131 126.173 351.655 124.181 354.613 124.181C357.487 124.181 358.984 126.065 358.477 129.119L356.496 141H358.658L360.674 128.987C361.398 124.567 359.225 122.213 355.47 122.213C352.657 122.213 350.604 123.433 349.445 125.364H349.252L350.749 116.273H348.6L344.495 141H346.644L348.564 129.409ZM371.767 141.386C375.498 141.386 378.311 139.37 379.542 137.04L377.623 136.376C376.633 138.042 374.725 139.418 372.069 139.418C368.133 139.418 366.237 137.016 366.961 132.367H380.786L380.955 131.305C381.993 125.111 378.649 122.201 374.628 122.201C369.823 122.201 365.839 126.222 364.909 131.836C363.967 137.462 366.575 141.386 371.767 141.386ZM367.287 130.472C368.048 127.175 371.055 124.157 374.339 124.157C377.671 124.157 379.506 126.898 378.903 130.472H367.287ZM416.238 124C416.165 119.448 412.99 115.935 407.702 115.935C401.496 115.935 396.316 120.825 395.036 128.504C393.732 136.315 397.415 141.338 403.729 141.338C408.921 141.338 413.147 137.812 414.741 133.273H412.471C411.203 136.665 407.774 139.213 403.838 139.213C399.214 139.213 396.05 135.579 397.185 128.769C398.32 121.863 402.812 118.06 407.557 118.06C411.372 118.06 413.884 120.619 413.992 124H416.238ZM422.374 129.409C422.942 126.173 425.465 124.181 428.423 124.181C431.297 124.181 432.794 126.065 432.287 129.119L430.307 141H432.468L434.485 128.987C435.209 124.567 433.036 122.213 429.281 122.213C426.468 122.213 424.415 123.433 423.256 125.364H423.063L424.56 116.273H422.411L418.306 141H420.455L422.374 129.409ZM445.433 141.386C450.165 141.386 454.089 137.535 455.007 131.969C455.937 126.21 453.208 122.201 448.318 122.201C443.597 122.201 439.673 126.04 438.756 131.643C437.814 137.39 440.555 141.386 445.433 141.386ZM445.469 139.418C441.702 139.418 440.168 136.038 440.844 131.969C441.533 127.731 444.37 124.157 448.294 124.157C452.061 124.157 453.582 127.574 452.918 131.643C452.23 135.905 449.405 139.418 445.469 139.418ZM461.702 141H463.924L470.83 125.823H471.059L472.943 141H475.164L483.858 122.455H481.564L474.633 137.716H474.464L472.665 122.455H470.383L463.453 137.752H463.296L461.449 122.455H459.191L461.702 141ZM485.934 118.301H493.77L490.003 141H492.261L496.028 118.301H503.864L504.202 116.273H486.272L485.934 118.301ZM504.757 141H506.919L510.01 122.455H507.848L504.757 141ZM509.708 119.231C510.577 119.231 511.314 118.543 511.338 117.722C511.362 116.852 510.637 116.14 509.744 116.14C508.875 116.14 508.138 116.828 508.114 117.649C508.09 118.518 508.802 119.231 509.708 119.231ZM512.602 141H514.752L516.732 129.119C517.203 126.234 519.509 124.181 522.08 124.181C524.628 124.181 525.763 125.871 525.365 128.383L523.252 141H525.449L527.49 128.793C527.924 126.113 529.868 124.181 532.705 124.181C535.156 124.181 536.485 125.642 536.026 128.576L533.949 141H536.098L538.175 128.576C538.875 124.435 537.088 122.213 533.659 122.213C530.955 122.213 528.757 123.517 527.598 125.582H527.441C526.958 123.481 525.546 122.213 522.998 122.213C520.571 122.213 518.567 123.384 517.492 125.304H517.299L517.782 122.455H515.693L512.602 141ZM549.238 141.386C552.968 141.386 555.782 139.37 557.013 137.04L555.093 136.376C554.103 138.042 552.196 139.418 549.539 139.418C545.603 139.418 543.708 137.016 544.432 132.367H558.257L558.426 131.305C559.464 125.111 556.12 122.201 552.099 122.201C547.294 122.201 543.309 126.222 542.38 131.836C541.438 137.462 544.046 141.386 549.238 141.386ZM544.758 130.472C545.519 127.175 548.525 124.157 551.809 124.157C555.142 124.157 556.977 126.898 556.373 130.472H544.758ZM578.556 141.386C582.287 141.386 585.1 139.37 586.331 137.04L584.412 136.376C583.422 138.042 581.514 139.418 578.858 139.418C574.922 139.418 573.026 137.016 573.751 132.367H587.575L587.744 131.305C588.782 125.111 585.438 122.201 581.417 122.201C576.612 122.201 572.628 126.222 571.698 131.836C570.756 137.462 573.364 141.386 578.556 141.386ZM574.077 130.472C574.837 127.175 577.844 124.157 581.128 124.157C584.46 124.157 586.295 126.898 585.692 130.472H574.077ZM594.759 122.455H592.296L596.643 131.715L589.181 141H591.716L597.765 133.357L601.267 141H603.742L599.323 131.763L606.857 122.455H604.346L598.236 130.363L594.759 122.455ZM607.065 147.955H609.227L610.965 137.559H611.158C611.641 139.261 612.861 141.386 616.229 141.386C620.769 141.386 624.5 137.523 625.454 131.776C626.396 126.04 623.969 122.201 619.381 122.201C615.964 122.201 614.104 124.326 613.09 125.992H612.825L613.404 122.455H611.315L607.065 147.955ZM611.895 131.739C612.619 127.296 615.239 124.157 618.862 124.157C622.604 124.157 623.981 127.465 623.293 131.739C622.568 136.062 619.948 139.418 616.254 139.418C612.668 139.418 611.17 136.219 611.895 131.739ZM636.064 141.386C639.795 141.386 642.608 139.37 643.839 137.04L641.92 136.376C640.93 138.042 639.022 139.418 636.366 139.418C632.43 139.418 630.534 137.016 631.258 132.367H645.083L645.252 131.305C646.29 125.111 642.946 122.201 638.925 122.201C634.12 122.201 630.135 126.222 629.206 131.836C628.264 137.462 630.872 141.386 636.064 141.386ZM631.584 130.472C632.345 127.175 635.351 124.157 638.635 124.157C641.968 124.157 643.803 126.898 643.199 130.472H631.584ZM648.37 141H650.519L652.499 129.023C652.97 126.27 655.397 124.278 658.295 124.278C658.874 124.278 659.393 124.374 659.587 124.398L659.961 122.213C659.671 122.177 659.188 122.177 658.826 122.177C656.496 122.177 654.262 123.433 653.224 125.304H653.067L653.55 122.455H651.461L648.37 141ZM660.547 141H662.708L665.799 122.455H663.637L660.547 141ZM665.497 119.231C666.366 119.231 667.103 118.543 667.127 117.722C667.151 116.852 666.426 116.14 665.533 116.14C664.664 116.14 663.927 116.828 663.903 117.649C663.879 118.518 664.591 119.231 665.497 119.231ZM675.841 141.386C679.572 141.386 682.385 139.37 683.617 137.04L681.697 136.376C680.707 138.042 678.799 139.418 676.143 139.418C672.207 139.418 670.311 137.016 671.036 132.367H684.86L685.029 131.305C686.068 125.111 682.723 122.201 678.703 122.201C673.897 122.201 669.913 126.222 668.983 131.836C668.041 137.462 670.649 141.386 675.841 141.386ZM671.362 130.472C672.122 127.175 675.129 124.157 678.413 124.157C681.745 124.157 683.58 126.898 682.977 130.472H671.362ZM692.216 129.409C692.784 126.173 695.247 124.181 698.169 124.181C701.042 124.181 702.503 126.089 702.008 129.119L700.028 141H702.177L704.194 128.987C704.918 124.592 702.745 122.213 699.026 122.213C696.309 122.213 694.196 123.469 693.037 125.364H692.844L693.327 122.455H691.238L688.147 141H690.297L692.216 129.409ZM715.033 141.386C718.884 141.386 721.987 138.96 723.074 135.591H720.901C719.995 137.945 717.798 139.418 715.323 139.418C711.676 139.418 709.817 136.255 710.59 131.739C711.314 127.248 714.333 124.157 717.931 124.157C720.563 124.157 722.036 125.823 722.144 127.96H724.318C724.378 124.519 721.903 122.201 718.184 122.201C713.33 122.201 709.334 126.222 708.428 131.812C707.511 137.33 710.022 141.386 715.033 141.386ZM734.212 141.386C737.943 141.386 740.756 139.37 741.988 137.04L740.068 136.376C739.078 138.042 737.17 139.418 734.514 139.418C730.578 139.418 728.682 137.016 729.407 132.367H743.231L743.4 131.305C744.439 125.111 741.094 122.201 737.074 122.201C732.268 122.201 728.284 126.222 727.354 131.836C726.412 137.462 729.02 141.386 734.212 141.386ZM729.733 130.472C730.493 127.175 733.5 124.157 736.784 124.157C740.116 124.157 741.952 126.898 741.348 130.472H729.733ZM766.477 122.455H762.54L763.277 118.011H761.116L760.379 122.455H757.626L757.312 124.326H760.077L758.037 136.665C757.542 139.696 759.655 141.278 762.021 141.278C762.915 141.278 763.543 141.109 764.013 140.952L763.857 139.008C763.531 139.08 763.144 139.177 762.577 139.177C761.116 139.177 759.872 138.489 760.259 136.158L762.227 124.326H766.175L766.477 122.455ZM775.372 141.386C780.105 141.386 784.029 137.535 784.947 131.969C785.876 126.21 783.148 122.201 778.258 122.201C773.537 122.201 769.613 126.04 768.695 131.643C767.753 137.39 770.494 141.386 775.372 141.386ZM775.408 139.418C771.641 139.418 770.108 136.038 770.784 131.969C771.472 127.731 774.309 124.157 778.233 124.157C782.001 124.157 783.522 127.574 782.858 131.643C782.17 135.905 779.344 139.418 775.408 139.418ZM797.718 141H799.867L801.847 129.119C802.318 126.234 804.624 124.181 807.196 124.181C809.743 124.181 810.878 125.871 810.48 128.383L808.367 141H810.564L812.605 128.793C813.039 126.113 814.983 124.181 817.821 124.181C820.272 124.181 821.6 125.642 821.141 128.576L819.064 141H821.213L823.29 128.576C823.99 124.435 822.203 122.213 818.775 122.213C816.07 122.213 813.873 123.517 812.713 125.582H812.556C812.074 123.481 810.661 122.213 808.113 122.213C805.686 122.213 803.682 123.384 802.608 125.304H802.414L802.897 122.455H800.809L797.718 141ZM832.035 141.423C835.126 141.423 837.299 139.708 838.325 138.066H838.458L837.963 141H840.112L842.213 128.407C843.034 123.433 839.508 122.201 836.671 122.201C833.834 122.201 830.694 123.324 828.956 126.354L830.863 127.091C831.805 125.509 833.834 124.133 836.514 124.133C839.315 124.133 840.498 125.69 840.088 128.214L840.015 128.648C839.774 130.037 838.023 130.073 834.872 130.46C830.586 130.967 827.459 132.15 826.831 135.82C826.275 139.394 828.666 141.423 832.035 141.423ZM832.578 139.455C830.151 139.455 828.618 138.163 828.992 135.917C829.366 133.671 831.371 132.729 834.582 132.343C836.091 132.162 838.856 131.824 839.581 131.208L839.134 133.888C838.639 136.931 836.007 139.455 832.578 139.455ZM845.829 141H847.978L849.173 133.816L851.649 131.812L857.42 141H860.137L853.472 130.423L862.744 122.455H859.992L849.862 131.16H849.608L852.083 116.273H849.934L845.829 141ZM870.378 141.386C874.109 141.386 876.922 139.37 878.154 137.04L876.234 136.376C875.244 138.042 873.336 139.418 870.68 139.418C866.744 139.418 864.848 137.016 865.573 132.367H879.397L879.566 131.305C880.605 125.111 877.26 122.201 873.24 122.201C868.434 122.201 864.45 126.222 863.52 131.836C862.578 137.462 865.186 141.386 870.378 141.386ZM865.899 130.472C866.659 127.175 869.666 124.157 872.95 124.157C876.282 124.157 878.118 126.898 877.514 130.472H865.899ZM902.643 122.455H898.706L899.443 118.011H897.282L896.545 122.455H893.792L893.479 124.326H896.243L894.203 136.665C893.708 139.696 895.821 141.278 898.187 141.278C899.081 141.278 899.709 141.109 900.18 140.952L900.023 139.008C899.697 139.08 899.31 139.177 898.743 139.177C897.282 139.177 896.038 138.489 896.425 136.158L898.393 124.326H902.341L902.643 122.455ZM908.9 129.409C909.467 126.173 911.991 124.181 914.949 124.181C917.822 124.181 919.32 126.065 918.812 129.119L916.832 141H918.994L921.01 128.987C921.734 124.567 919.561 122.213 915.806 122.213C912.993 122.213 910.94 123.433 909.781 125.364H909.588L911.085 116.273H908.936L904.831 141H906.98L908.9 129.409ZM932.103 141.386C935.834 141.386 938.647 139.37 939.878 137.04L937.959 136.376C936.969 138.042 935.061 139.418 932.405 139.418C928.469 139.418 926.573 137.016 927.297 132.367H941.122L941.291 131.305C942.329 125.111 938.985 122.201 934.964 122.201C930.159 122.201 926.175 126.222 925.245 131.836C924.303 137.462 926.911 141.386 932.103 141.386ZM927.623 130.472C928.384 127.175 931.39 124.157 934.675 124.157C938.007 124.157 939.842 126.898 939.238 130.472H927.623ZM175.316 182H177.477L180.568 163.455H178.407L175.316 182ZM180.266 160.231C181.136 160.231 181.872 159.543 181.896 158.722C181.92 157.852 181.196 157.14 180.303 157.14C179.433 157.14 178.697 157.828 178.673 158.649C178.648 159.518 179.361 160.231 180.266 160.231ZM187.23 170.409C187.797 167.173 190.26 165.181 193.182 165.181C196.056 165.181 197.517 167.089 197.022 170.119L195.042 182H197.191L199.207 169.987C199.932 165.592 197.758 163.213 194.04 163.213C191.323 163.213 189.21 164.469 188.051 166.364H187.858L188.341 163.455H186.252L183.161 182H185.31L187.23 170.409ZM208.767 189.341C213.15 189.341 216.735 187.204 217.532 182.483L220.672 163.455H218.571L217.991 166.992H217.774C217.291 165.326 216.108 163.201 212.703 163.201C208.115 163.201 204.396 167.04 203.478 172.679C202.525 178.366 205.145 181.807 209.588 181.807C212.92 181.807 214.876 179.875 215.866 178.173H216.059L215.407 182.35C214.828 185.803 212.268 187.409 208.996 187.409C205.797 187.409 204.601 185.888 204.058 184.475L202.102 185.622C202.85 187.735 204.963 189.341 208.767 189.341ZM210.071 179.839C206.376 179.839 204.927 176.893 205.627 172.643C206.328 168.465 208.815 165.157 212.558 165.157C216.18 165.157 217.75 168.296 217.025 172.643C216.289 177.122 213.632 179.839 210.071 179.839ZM223.27 182H225.42L227.4 170.023C227.871 167.27 230.297 165.278 233.195 165.278C233.775 165.278 234.294 165.374 234.487 165.398L234.861 163.213C234.572 163.177 234.089 163.177 233.726 163.177C231.396 163.177 229.162 164.433 228.124 166.304H227.967L228.45 163.455H226.361L223.27 182ZM242.308 182.386C246.039 182.386 248.852 180.37 250.083 178.04L248.164 177.376C247.174 179.042 245.266 180.418 242.61 180.418C238.674 180.418 236.778 178.016 237.502 173.367H251.327L251.496 172.305C252.534 166.111 249.19 163.201 245.169 163.201C240.364 163.201 236.38 167.222 235.45 172.836C234.508 178.462 237.116 182.386 242.308 182.386ZM237.828 171.472C238.589 168.175 241.596 165.157 244.88 165.157C248.212 165.157 250.047 167.898 249.444 171.472H237.828ZM261.279 182.386C264.635 182.386 266.567 180.249 267.606 178.559H267.859L267.28 182H269.368L273.474 157.273H271.324L269.706 166.992H269.513C269.055 165.326 267.871 163.201 264.466 163.201C259.903 163.201 256.172 167.065 255.218 172.776C254.276 178.535 256.703 182.386 261.279 182.386ZM261.738 180.418C258.043 180.418 256.667 177.062 257.391 172.739C258.091 168.465 260.627 165.157 264.346 165.157C267.968 165.157 269.525 168.296 268.789 172.739C268.04 177.219 265.336 180.418 261.738 180.418ZM275.523 182H277.684L280.775 163.455H278.614L275.523 182ZM280.473 160.231C281.343 160.231 282.079 159.543 282.103 158.722C282.127 157.852 281.403 157.14 280.51 157.14C279.64 157.14 278.904 157.828 278.88 158.649C278.855 159.518 279.568 160.231 280.473 160.231ZM290.818 182.386C294.548 182.386 297.362 180.37 298.593 178.04L296.673 177.376C295.683 179.042 293.776 180.418 291.119 180.418C287.183 180.418 285.288 178.016 286.012 173.367H299.837L300.006 172.305C301.044 166.111 297.7 163.201 293.679 163.201C288.874 163.201 284.889 167.222 283.96 172.836C283.018 178.462 285.626 182.386 290.818 182.386ZM286.338 171.472C287.099 168.175 290.105 165.157 293.389 165.157C296.722 165.157 298.557 167.898 297.953 171.472H286.338ZM307.193 170.409C307.76 167.173 310.223 165.181 313.145 165.181C316.019 165.181 317.48 167.089 316.985 170.119L315.005 182H317.154L319.17 169.987C319.895 165.592 317.721 163.213 314.002 163.213C311.286 163.213 309.173 164.469 308.014 166.364H307.821L308.304 163.455H306.215L303.124 182H305.273L307.193 170.409ZM333.209 163.455H329.273L330.009 159.011H327.848L327.112 163.455H324.359L324.045 165.326H326.81L324.769 177.665C324.274 180.696 326.387 182.278 328.754 182.278C329.647 182.278 330.275 182.109 330.746 181.952L330.589 180.008C330.263 180.08 329.877 180.177 329.309 180.177C327.848 180.177 326.605 179.489 326.991 177.158L328.959 165.326H332.907L333.209 163.455ZM349.693 182.423C352.784 182.423 354.957 180.708 355.983 179.066H356.116L355.621 182H357.77L359.871 169.407C360.692 164.433 357.167 163.201 354.329 163.201C351.492 163.201 348.353 164.324 346.614 167.354L348.522 168.091C349.463 166.509 351.492 165.133 354.172 165.133C356.973 165.133 358.157 166.69 357.746 169.214L357.674 169.648C357.432 171.037 355.681 171.073 352.53 171.46C348.244 171.967 345.117 173.15 344.489 176.82C343.934 180.394 346.324 182.423 349.693 182.423ZM350.236 180.455C347.809 180.455 346.276 179.163 346.65 176.917C347.025 174.671 349.029 173.729 352.24 173.343C353.75 173.162 356.515 172.824 357.239 172.208L356.792 174.888C356.297 177.931 353.665 180.455 350.236 180.455ZM370.152 182.386C373.509 182.386 375.44 180.249 376.479 178.559H376.732L376.153 182H378.241L382.347 157.273H380.197L378.58 166.992H378.386C377.928 165.326 376.744 163.201 373.339 163.201C368.776 163.201 365.045 167.065 364.091 172.776C363.149 178.535 365.576 182.386 370.152 182.386ZM370.611 180.418C366.916 180.418 365.54 177.062 366.264 172.739C366.964 168.465 369.5 165.157 373.219 165.157C376.841 165.157 378.398 168.296 377.662 172.739C376.913 177.219 374.209 180.418 370.611 180.418ZM391.037 182.386C394.393 182.386 396.325 180.249 397.363 178.559H397.617L397.037 182H399.126L403.231 157.273H401.082L399.464 166.992H399.271C398.812 165.326 397.629 163.201 394.224 163.201C389.66 163.201 385.93 167.065 384.976 172.776C384.034 178.535 386.461 182.386 391.037 182.386ZM391.496 180.418C387.801 180.418 386.425 177.062 387.149 172.739C387.849 168.465 390.385 165.157 394.104 165.157C397.726 165.157 399.283 168.296 398.547 172.739C397.798 177.219 395.094 180.418 391.496 180.418ZM405.281 182H407.442L410.533 163.455H408.372L405.281 182ZM410.231 160.231C411.1 160.231 411.837 159.543 411.861 158.722C411.885 157.852 411.161 157.14 410.267 157.14C409.398 157.14 408.662 157.828 408.637 158.649C408.613 159.518 409.326 160.231 410.231 160.231ZM417.195 170.409C417.762 167.173 420.225 165.181 423.147 165.181C426.021 165.181 427.482 167.089 426.987 170.119L425.007 182H427.156L429.172 169.987C429.896 165.592 427.723 163.213 424.004 163.213C421.288 163.213 419.175 164.469 418.016 166.364H417.823L418.306 163.455H416.217L413.126 182H415.275L417.195 170.409ZM438.732 189.341C443.114 189.341 446.7 187.204 447.497 182.483L450.636 163.455H448.536L447.956 166.992H447.739C447.256 165.326 446.072 163.201 442.668 163.201C438.08 163.201 434.361 167.04 433.443 172.679C432.489 178.366 435.109 181.807 439.553 181.807C442.885 181.807 444.841 179.875 445.831 178.173H446.024L445.372 182.35C444.793 185.803 442.233 187.409 438.961 187.409C435.761 187.409 434.566 185.888 434.023 184.475L432.067 185.622C432.815 187.735 434.928 189.341 438.732 189.341ZM440.036 179.839C436.341 179.839 434.892 176.893 435.592 172.643C436.293 168.465 438.78 165.157 442.523 165.157C446.145 165.157 447.714 168.296 446.99 172.643C446.254 177.122 443.597 179.839 440.036 179.839ZM467.929 182.423C471.02 182.423 473.193 180.708 474.22 179.066H474.352L473.857 182H476.007L478.107 169.407C478.928 164.433 475.403 163.201 472.566 163.201C469.728 163.201 466.589 164.324 464.85 167.354L466.758 168.091C467.7 166.509 469.728 165.133 472.409 165.133C475.21 165.133 476.393 166.69 475.982 169.214L475.91 169.648C475.669 171.037 473.918 171.073 470.767 171.46C466.48 171.967 463.353 173.15 462.725 176.82C462.17 180.394 464.561 182.423 467.929 182.423ZM468.472 180.455C466.046 180.455 464.512 179.163 464.887 176.917C465.261 174.671 467.265 173.729 470.477 173.343C471.986 173.162 474.751 172.824 475.475 172.208L475.029 174.888C474.534 177.931 471.901 180.455 468.472 180.455ZM485.792 170.409C486.36 167.173 488.823 165.181 491.745 165.181C494.618 165.181 496.079 167.089 495.584 170.119L493.604 182H495.753L497.77 169.987C498.494 165.592 496.321 163.213 492.602 163.213C489.885 163.213 487.773 164.469 486.613 166.364H486.42L486.903 163.455H484.814L481.724 182H483.873L485.792 170.409ZM508.078 182.386C511.434 182.386 513.366 180.249 514.404 178.559H514.658L514.078 182H516.167L520.272 157.273H518.123L516.505 166.992H516.312C515.853 165.326 514.67 163.201 511.265 163.201C506.701 163.201 502.971 167.065 502.017 172.776C501.075 178.535 503.502 182.386 508.078 182.386ZM508.537 180.418C504.842 180.418 503.466 177.062 504.19 172.739C504.89 168.465 507.426 165.157 511.145 165.157C514.767 165.157 516.324 168.296 515.588 172.739C514.839 177.219 512.135 180.418 508.537 180.418ZM531.86 182H534.009L535.99 170.023C536.46 167.27 538.887 165.278 541.785 165.278C542.365 165.278 542.884 165.374 543.077 165.398L543.451 163.213C543.161 163.177 542.678 163.177 542.316 163.177C539.986 163.177 537.752 164.433 536.714 166.304H536.557L537.04 163.455H534.951L531.86 182ZM550.898 182.386C554.629 182.386 557.442 180.37 558.673 178.04L556.754 177.376C555.763 179.042 553.856 180.418 551.2 180.418C547.263 180.418 545.368 178.016 546.092 173.367H559.917L560.086 172.305C561.124 166.111 557.78 163.201 553.759 163.201C548.954 163.201 544.969 167.222 544.04 172.836C543.098 178.462 545.706 182.386 550.898 182.386ZM546.418 171.472C547.179 168.175 550.185 165.157 553.469 165.157C556.802 165.157 558.637 167.898 558.033 171.472H546.418ZM570.4 182.386C574.252 182.386 577.355 179.96 578.441 176.591H576.268C575.362 178.945 573.165 180.418 570.69 180.418C567.044 180.418 565.184 177.255 565.957 172.739C566.681 168.248 569.7 165.157 573.298 165.157C575.93 165.157 577.403 166.823 577.512 168.96H579.685C579.745 165.519 577.27 163.201 573.551 163.201C568.698 163.201 564.701 167.222 563.796 172.812C562.878 178.33 565.389 182.386 570.4 182.386ZM582.154 182H584.315L587.406 163.455H585.245L582.154 182ZM587.104 160.231C587.974 160.231 588.71 159.543 588.734 158.722C588.758 157.852 588.034 157.14 587.14 157.14C586.271 157.14 585.535 157.828 585.51 158.649C585.486 159.518 586.199 160.231 587.104 160.231ZM588.804 188.955H590.965L592.703 178.559H592.897C593.38 180.261 594.599 182.386 597.968 182.386C602.507 182.386 606.238 178.523 607.192 172.776C608.134 167.04 605.707 163.201 601.119 163.201C597.702 163.201 595.843 165.326 594.828 166.992H594.563L595.142 163.455H593.054L588.804 188.955ZM593.633 172.739C594.358 168.296 596.978 165.157 600.6 165.157C604.343 165.157 605.719 168.465 605.031 172.739C604.306 177.062 601.686 180.418 597.992 180.418C594.406 180.418 592.909 177.219 593.633 172.739ZM617.802 182.386C621.533 182.386 624.346 180.37 625.578 178.04L623.658 177.376C622.668 179.042 620.76 180.418 618.104 180.418C614.168 180.418 612.272 178.016 612.997 173.367H626.821L626.99 172.305C628.029 166.111 624.684 163.201 620.664 163.201C615.858 163.201 611.874 167.222 610.944 172.836C610.002 178.462 612.61 182.386 617.802 182.386ZM613.323 171.472C614.083 168.175 617.09 165.157 620.374 165.157C623.706 165.157 625.541 167.898 624.938 171.472H613.323ZM657.118 163.455H654.691L646.565 179.163H646.408L643.51 163.455H641.277L644.959 182H647.253L657.118 163.455ZM658.256 182H660.417L663.508 163.455H661.346L658.256 182ZM663.206 160.231C664.075 160.231 664.812 159.543 664.836 158.722C664.86 157.852 664.135 157.14 663.242 157.14C662.373 157.14 661.636 157.828 661.612 158.649C661.588 159.518 662.3 160.231 663.206 160.231ZM673.55 182.386C677.281 182.386 680.094 180.37 681.326 178.04L679.406 177.376C678.416 179.042 676.508 180.418 673.852 180.418C669.916 180.418 668.02 178.016 668.745 173.367H682.569L682.738 172.305C683.777 166.111 680.432 163.201 676.412 163.201C671.606 163.201 667.622 167.222 666.692 172.836C665.75 178.462 668.358 182.386 673.55 182.386ZM669.071 171.472C669.831 168.175 672.838 165.157 676.122 165.157C679.454 165.157 681.289 167.898 680.686 171.472H669.071ZM689.974 182H692.195L699.101 166.823H699.331L701.214 182H703.436L712.129 163.455H709.835L702.905 178.716H702.736L700.937 163.455H698.655L691.724 178.752H691.567L689.72 163.455H687.462L689.974 182ZM713.24 182H715.401L718.492 163.455H716.331L713.24 182ZM718.19 160.231C719.059 160.231 719.796 159.543 719.82 158.722C719.844 157.852 719.12 157.14 718.226 157.14C717.357 157.14 716.621 157.828 716.596 158.649C716.572 159.518 717.285 160.231 718.19 160.231ZM725.154 170.409C725.721 167.173 728.184 165.181 731.106 165.181C733.98 165.181 735.441 167.089 734.946 170.119L732.966 182H735.115L737.131 169.987C737.855 165.592 735.682 163.213 731.963 163.213C729.247 163.213 727.134 164.469 725.975 166.364H725.782L726.265 163.455H724.176L721.085 182H723.234L725.154 170.409ZM746.691 189.341C751.073 189.341 754.659 187.204 755.456 182.483L758.595 163.455H756.494L755.915 166.992H755.698C755.215 165.326 754.031 163.201 750.627 163.201C746.039 163.201 742.32 167.04 741.402 172.679C740.448 178.366 743.068 181.807 747.512 181.807C750.844 181.807 752.8 179.875 753.79 178.173H753.983L753.331 182.35C752.752 185.803 750.192 187.409 746.92 187.409C743.72 187.409 742.525 185.888 741.982 184.475L740.026 185.622C740.774 187.735 742.887 189.341 746.691 189.341ZM747.994 179.839C744.3 179.839 742.851 176.893 743.551 172.643C744.252 168.465 746.739 165.157 750.482 165.157C754.104 165.157 755.673 168.296 754.949 172.643C754.213 177.122 751.556 179.839 747.994 179.839ZM769.561 188.955H771.723L773.461 178.559H773.654C774.137 180.261 775.357 182.386 778.725 182.386C783.265 182.386 786.996 178.523 787.95 172.776C788.892 167.04 786.465 163.201 781.877 163.201C778.46 163.201 776.6 165.326 775.586 166.992H775.321L775.9 163.455H773.811L769.561 188.955ZM774.391 172.739C775.115 168.296 777.735 165.157 781.358 165.157C785.1 165.157 786.477 168.465 785.789 172.739C785.064 177.062 782.444 180.418 778.75 180.418C775.164 180.418 773.667 177.219 774.391 172.739ZM791.11 182H793.259L795.24 170.023C795.71 167.27 798.137 165.278 801.035 165.278C801.615 165.278 802.134 165.374 802.327 165.398L802.701 163.213C802.411 163.177 801.928 163.177 801.566 163.177C799.236 163.177 797.002 164.433 795.964 166.304H795.807L796.29 163.455H794.201L791.11 182ZM810.003 182.386C814.736 182.386 818.66 178.535 819.577 172.969C820.507 167.21 817.778 163.201 812.888 163.201C808.168 163.201 804.244 167.04 803.326 172.643C802.384 178.39 805.125 182.386 810.003 182.386ZM810.039 180.418C806.272 180.418 804.739 177.038 805.415 172.969C806.103 168.731 808.94 165.157 812.864 165.157C816.631 165.157 818.153 168.574 817.489 172.643C816.8 176.905 813.975 180.418 810.039 180.418ZM829.982 182.386C833.834 182.386 836.937 179.96 838.023 176.591H835.85C834.944 178.945 832.747 180.418 830.272 180.418C826.626 180.418 824.766 177.255 825.539 172.739C826.263 168.248 829.282 165.157 832.88 165.157C835.512 165.157 836.985 166.823 837.094 168.96H839.267C839.327 165.519 836.852 163.201 833.133 163.201C828.28 163.201 824.283 167.222 823.378 172.812C822.46 178.33 824.971 182.386 829.982 182.386ZM849.161 182.386C852.892 182.386 855.705 180.37 856.937 178.04L855.017 177.376C854.027 179.042 852.119 180.418 849.463 180.418C845.527 180.418 843.632 178.016 844.356 173.367H858.181L858.35 172.305C859.388 166.111 856.044 163.201 852.023 163.201C847.218 163.201 843.233 167.222 842.303 172.836C841.362 178.462 843.97 182.386 849.161 182.386ZM844.682 171.472C845.443 168.175 848.449 165.157 851.733 165.157C855.066 165.157 856.901 167.898 856.297 171.472H844.682ZM876.343 167.523C875.872 164.843 874.169 163.201 870.752 163.201C867.022 163.201 863.955 165.314 863.448 168.369C863.025 170.856 864.281 172.546 867.384 173.343L870.27 174.067C872.25 174.55 873.059 175.553 872.793 177.062C872.491 178.982 870.366 180.455 867.505 180.455C864.993 180.455 863.593 179.308 863.46 177.122L861.299 177.605C861.444 180.696 863.629 182.386 867.275 182.386C871.356 182.386 874.52 180.153 875.039 177.026C875.449 174.526 874.169 172.872 871.175 172.099L868.471 171.411C866.273 170.844 865.368 169.902 865.633 168.332C865.935 166.449 867.951 165.097 870.475 165.097C872.974 165.097 873.952 166.388 874.278 168.055L876.343 167.523ZM893.774 167.523C893.303 164.843 891.601 163.201 888.184 163.201C884.453 163.201 881.387 165.314 880.879 168.369C880.457 170.856 881.713 172.546 884.816 173.343L887.701 174.067C889.681 174.55 890.49 175.553 890.225 177.062C889.923 178.982 887.798 180.455 884.936 180.455C882.425 180.455 881.024 179.308 880.892 177.122L878.73 177.605C878.875 180.696 881.061 182.386 884.707 182.386C888.788 182.386 891.951 180.153 892.47 177.026C892.881 174.526 891.601 172.872 888.607 172.099L885.902 171.411C883.705 170.844 882.799 169.902 883.065 168.332C883.367 166.449 885.383 165.097 887.906 165.097C890.406 165.097 891.384 166.388 891.71 168.055L893.774 167.523ZM903.781 182.386C907.511 182.386 910.325 180.37 911.556 178.04L909.636 177.376C908.646 179.042 906.739 180.418 904.082 180.418C900.146 180.418 898.251 178.016 898.975 173.367H912.8L912.969 172.305C914.007 166.111 910.663 163.201 906.642 163.201C901.837 163.201 897.852 167.222 896.923 172.836C895.981 178.462 898.589 182.386 903.781 182.386ZM899.301 171.472C900.062 168.175 903.068 165.157 906.352 165.157C909.685 165.157 911.52 167.898 910.916 171.472H899.301ZM930.962 167.523C930.491 164.843 928.789 163.201 925.372 163.201C921.641 163.201 918.574 165.314 918.067 168.369C917.644 170.856 918.9 172.546 922.003 173.343L924.889 174.067C926.869 174.55 927.678 175.553 927.412 177.062C927.11 178.982 924.985 180.455 922.124 180.455C919.612 180.455 918.212 179.308 918.079 177.122L915.918 177.605C916.063 180.696 918.248 182.386 921.894 182.386C925.975 182.386 929.139 180.153 929.658 177.026C930.068 174.526 928.789 172.872 925.794 172.099L923.09 171.411C920.892 170.844 919.987 169.902 920.252 168.332C920.554 166.449 922.57 165.097 925.094 165.097C927.593 165.097 928.571 166.388 928.897 168.055L930.962 167.523ZM175.292 223H177.441L179.421 211.119C179.892 208.234 182.198 206.181 184.77 206.181C187.317 206.181 188.452 207.871 188.054 210.383L185.941 223H188.138L190.179 210.793C190.614 208.113 192.558 206.181 195.395 206.181C197.846 206.181 199.174 207.642 198.715 210.576L196.638 223H198.788L200.864 210.576C201.565 206.435 199.778 204.213 196.349 204.213C193.644 204.213 191.447 205.517 190.288 207.582H190.131C189.648 205.481 188.235 204.213 185.688 204.213C183.261 204.213 181.256 205.384 180.182 207.304H179.989L180.472 204.455H178.383L175.292 223ZM211.782 223.386C216.515 223.386 220.439 219.535 221.357 213.969C222.286 208.21 219.558 204.201 214.668 204.201C209.947 204.201 206.023 208.04 205.105 213.643C204.164 219.39 206.904 223.386 211.782 223.386ZM211.818 221.418C208.051 221.418 206.518 218.038 207.194 213.969C207.882 209.731 210.72 206.157 214.644 206.157C218.411 206.157 219.932 209.574 219.268 213.643C218.58 217.905 215.754 221.418 211.818 221.418ZM224.565 223H226.714L228.695 211.023C229.165 208.27 231.592 206.278 234.49 206.278C235.07 206.278 235.589 206.374 235.782 206.398L236.156 204.213C235.866 204.177 235.384 204.177 235.021 204.177C232.691 204.177 230.457 205.433 229.419 207.304H229.262L229.745 204.455H227.656L224.565 223ZM243.603 223.386C247.334 223.386 250.147 221.37 251.378 219.04L249.459 218.376C248.469 220.042 246.561 221.418 243.905 221.418C239.969 221.418 238.073 219.016 238.797 214.367H252.622L252.791 213.305C253.829 207.111 250.485 204.201 246.464 204.201C241.659 204.201 237.675 208.222 236.745 213.836C235.803 219.462 238.411 223.386 243.603 223.386ZM239.123 212.472C239.884 209.175 242.89 206.157 246.175 206.157C249.507 206.157 251.342 208.898 250.738 212.472H239.123ZM265.496 223H267.657L270.748 204.455H268.587L265.496 223ZM270.446 201.231C271.315 201.231 272.052 200.543 272.076 199.722C272.1 198.852 271.376 198.14 270.482 198.14C269.613 198.14 268.876 198.828 268.852 199.649C268.828 200.518 269.54 201.231 270.446 201.231ZM277.41 211.409C277.977 208.173 280.44 206.181 283.362 206.181C286.236 206.181 287.697 208.089 287.202 211.119L285.221 223H287.371L289.387 210.987C290.111 206.592 287.938 204.213 284.219 204.213C281.503 204.213 279.39 205.469 278.231 207.364H278.037L278.52 204.455H276.432L273.341 223H275.49L277.41 211.409ZM303.426 204.455H299.49L300.226 200.011H298.065L297.328 204.455H294.576L294.262 206.326H297.027L294.986 218.665C294.491 221.696 296.604 223.278 298.971 223.278C299.864 223.278 300.492 223.109 300.963 222.952L300.806 221.008C300.48 221.08 300.093 221.177 299.526 221.177C298.065 221.177 296.821 220.489 297.208 218.158L299.176 206.326H303.124L303.426 204.455ZM318.171 215.913C317.604 219.317 314.754 221.153 312.243 221.153C309.574 221.153 308.017 219.233 308.476 216.335L310.456 204.455H308.307L306.29 216.468C305.566 220.863 307.703 223.241 311.265 223.241C313.981 223.241 316.191 221.829 317.35 219.921H317.507L317 223H319.149L322.24 204.455H320.091L318.171 215.913ZM324.863 223H327.024L330.115 204.455H327.954L324.863 223ZM329.813 201.231C330.683 201.231 331.419 200.543 331.443 199.722C331.467 198.852 330.743 198.14 329.849 198.14C328.98 198.14 328.244 198.828 328.219 199.649C328.195 200.518 328.908 201.231 329.813 201.231ZM343.104 204.455H339.167L339.904 200.011H337.743L337.006 204.455H334.253L333.939 206.326H336.704L334.664 218.665C334.169 221.696 336.282 223.278 338.648 223.278C339.542 223.278 340.17 223.109 340.64 222.952L340.483 221.008C340.157 221.08 339.771 221.177 339.204 221.177C337.743 221.177 336.499 220.489 336.885 218.158L338.854 206.326H342.802L343.104 204.455ZM344.918 223H347.079L350.17 204.455H348.009L344.918 223ZM349.868 201.231C350.737 201.231 351.474 200.543 351.498 199.722C351.522 198.852 350.798 198.14 349.904 198.14C349.035 198.14 348.298 198.828 348.274 199.649C348.25 200.518 348.962 201.231 349.868 201.231ZM370.209 204.455H367.782L359.657 220.163H359.5L356.602 204.455H354.368L358.051 223H360.345L370.209 204.455ZM378.109 223.386C381.839 223.386 384.653 221.37 385.884 219.04L383.964 218.376C382.974 220.042 381.067 221.418 378.411 221.418C374.474 221.418 372.579 219.016 373.303 214.367H387.128L387.297 213.305C388.335 207.111 384.991 204.201 380.97 204.201C376.165 204.201 372.18 208.222 371.251 213.836C370.309 219.462 372.917 223.386 378.109 223.386ZM373.629 212.472C374.39 209.175 377.396 206.157 380.68 206.157C384.013 206.157 385.848 208.898 385.244 212.472H373.629ZM405.109 223.423C408.2 223.423 410.373 221.708 411.399 220.066H411.532L411.037 223H413.186L415.287 210.407C416.108 205.433 412.583 204.201 409.745 204.201C406.908 204.201 403.769 205.324 402.03 208.354L403.938 209.091C404.879 207.509 406.908 206.133 409.588 206.133C412.389 206.133 413.573 207.69 413.162 210.214L413.09 210.648C412.848 212.037 411.097 212.073 407.946 212.46C403.66 212.967 400.533 214.15 399.905 217.82C399.35 221.394 401.74 223.423 405.109 223.423ZM405.652 221.455C403.225 221.455 401.692 220.163 402.066 217.917C402.441 215.671 404.445 214.729 407.656 214.343C409.166 214.162 411.931 213.824 412.655 213.208L412.208 215.888C411.713 218.931 409.081 221.455 405.652 221.455ZM422.972 211.409C423.54 208.173 426.003 206.181 428.925 206.181C431.798 206.181 433.259 208.089 432.764 211.119L430.784 223H432.933L434.949 210.987C435.674 206.592 433.501 204.213 429.782 204.213C427.065 204.213 424.952 205.469 423.793 207.364H423.6L424.083 204.455H421.994L418.903 223H421.052L422.972 211.409ZM445.257 223.386C448.614 223.386 450.546 221.249 451.584 219.559H451.838L451.258 223H453.347L457.452 198.273H455.303L453.685 207.992H453.492C453.033 206.326 451.85 204.201 448.445 204.201C443.881 204.201 440.15 208.065 439.196 213.776C438.255 219.535 440.681 223.386 445.257 223.386ZM445.716 221.418C442.022 221.418 440.645 218.062 441.37 213.739C442.07 209.465 444.605 206.157 448.324 206.157C451.946 206.157 453.504 209.296 452.767 213.739C452.019 218.219 449.314 221.418 445.716 221.418ZM479.762 204.455H475.632L476.007 202.185C476.345 200.241 477.588 199.154 479.448 199.154C480.16 199.154 480.558 199.323 480.884 199.42L481.802 197.536C481.404 197.355 480.727 197.126 479.593 197.126C477.057 197.126 474.413 198.744 473.942 201.738L473.495 204.455H470.646L470.344 206.326H473.181L470.404 223H472.553L475.318 206.326H479.448L479.762 204.455ZM493.915 215.913C493.348 219.317 490.498 221.153 487.987 221.153C485.319 221.153 483.761 219.233 484.22 216.335L486.2 204.455H484.051L482.034 216.468C481.31 220.863 483.447 223.241 487.009 223.241C489.725 223.241 491.935 221.829 493.094 219.921H493.251L492.744 223H494.893L497.984 204.455H495.835L493.915 215.913ZM504.652 211.409C505.219 208.173 507.682 206.181 510.604 206.181C513.478 206.181 514.939 208.089 514.444 211.119L512.464 223H514.613L516.629 210.987C517.354 206.592 515.18 204.213 511.461 204.213C508.745 204.213 506.632 205.469 505.473 207.364H505.28L505.763 204.455H503.674L500.583 223H502.732L504.652 211.409ZM522.228 223.181C523.182 223.181 523.967 222.408 524.003 221.442C524.039 220.501 523.243 219.728 522.301 219.728C521.347 219.728 520.526 220.477 520.526 221.442C520.526 222.408 521.25 223.181 522.228 223.181Z" fill="white"/>
<path opacity="0.2" d="M227 133.299C227 137.729 225.404 141.287 222.211 143.972C219.152 146.657 215.028 148 209.84 148C203.322 148 198.134 145.718 194.276 141.153C190.551 136.588 188.689 130.412 188.689 122.625C188.689 110.273 193.411 101.278 202.856 95.6389C209.241 91.8796 214.895 90 219.817 90C220.748 90 221.213 90.3357 221.213 91.007C221.213 91.8125 220.681 92.2824 219.617 92.4167C204.452 96.4445 196.87 104.231 196.87 115.778C196.87 123.296 199.464 128.6 204.652 131.688C204.652 124.035 207.978 120.208 214.629 120.208C218.22 120.208 221.147 121.484 223.408 124.035C225.803 126.451 227 129.539 227 133.299ZM179.311 133.299C179.311 137.729 177.715 141.287 174.522 143.972C171.462 146.657 167.339 148 162.151 148C155.633 148 150.445 145.718 146.587 141.153C142.862 136.588 141 130.412 141 122.625C141 110.273 145.722 101.278 155.167 95.6389C161.552 91.8796 167.206 90 172.128 90C173.059 90 173.524 90.3357 173.524 91.007C173.524 91.8125 172.992 92.2824 171.928 92.4167C166.208 94.162 162.018 95.7732 159.357 97.25C152.573 101.278 149.181 107.521 149.181 115.979C149.181 123.363 151.775 128.6 156.963 131.688C156.963 124.035 160.288 120.208 166.94 120.208C170.664 120.208 173.657 121.417 175.919 123.833C178.18 126.25 179.311 129.405 179.311 133.299Z" fill="#F5F5F5"/>
</svg>
