<svg width="1150" height="638" viewBox="0 0 1150 638" fill="none" xmlns="http://www.w3.org/2000/svg">
<rect width="1150" height="638" fill="#1A1A1A"/>
<path d="M106.136 187.636H150.818V204H169.636V187.636H181.182V171.864H169.636V110.909H145L106.136 172.136V187.636ZM151.182 171.864H125.955V171.136L150.455 132.364H151.182V171.864Z" fill="white"/>
<path d="M653.545 204H719.909V187.909H680.818V187.273L694.409 173.955C713.545 156.5 718.682 147.773 718.682 137.182C718.682 121.045 705.5 109.636 685.545 109.636C666 109.636 652.591 121.318 652.636 139.591H671.318C671.273 130.682 676.909 125.227 685.409 125.227C693.591 125.227 699.682 130.318 699.682 138.5C699.682 145.909 695.136 151 686.682 159.136L653.545 189.818V204Z" fill="white"/>
<path d="M141.955 450.273C162.864 450.273 177.818 438.773 177.773 422.864C177.818 411.273 170.455 403 156.773 401.273V400.545C167.182 398.682 174.364 391.318 174.318 380.864C174.364 366.182 161.5 354.636 142.227 354.636C123.136 354.636 108.773 365.818 108.5 381.909H127.364C127.591 374.818 134.091 370.227 142.136 370.227C150.091 370.227 155.409 375.045 155.364 382.045C155.409 389.364 149.182 394.318 140.227 394.318H131.545V408.773H140.227C150.773 408.773 157.364 414.045 157.318 421.545C157.364 428.955 151 434.045 142 434.045C133.318 434.045 126.818 429.5 126.455 422.682H106.636C106.955 438.955 121.5 450.273 141.955 450.273Z" fill="white"/>
<path d="M653.545 449H719.909V432.909H680.818V432.273L694.409 418.955C713.545 401.5 718.682 392.773 718.682 382.182C718.682 366.045 705.5 354.636 685.545 354.636C666 354.636 652.591 366.318 652.636 384.591H671.318C671.273 375.682 676.909 370.227 685.409 370.227C693.591 370.227 699.682 375.318 699.682 383.5C699.682 390.909 695.136 396 686.682 404.136L653.545 434.818V449Z" fill="white"/>
<path d="M108.75 266C114.955 266 118.455 262.142 118.455 255.778C118.455 249.455 114.955 245.636 109.028 245.636H102.466V266H108.75ZM104.932 263.812V247.824H108.869C113.642 247.824 116.068 250.847 116.068 255.778C116.068 260.75 113.642 263.812 108.591 263.812H104.932ZM122.273 266H124.619V250.727H122.273V266ZM123.466 248.182C124.381 248.182 125.136 247.466 125.136 246.591C125.136 245.716 124.381 245 123.466 245C122.551 245 121.795 245.716 121.795 246.591C121.795 247.466 122.551 248.182 123.466 248.182ZM139.735 254.148C139 251.98 137.349 250.528 134.326 250.528C131.105 250.528 128.718 252.358 128.718 254.943C128.718 257.051 129.971 258.463 132.775 259.119L135.321 259.716C136.862 260.074 137.588 260.81 137.588 261.864C137.588 263.176 136.196 264.25 134.008 264.25C132.089 264.25 130.886 263.425 130.468 261.784L128.241 262.341C128.788 264.936 130.926 266.318 134.048 266.318C137.598 266.318 140.014 264.379 140.014 261.744C140.014 259.616 138.681 258.274 135.957 257.608L133.69 257.051C131.88 256.604 131.065 255.997 131.065 254.824C131.065 253.511 132.457 252.557 134.326 252.557C136.375 252.557 137.22 253.69 137.627 254.744L139.735 254.148ZM145.893 245.636H143.546V266H145.893V245.636ZM150.191 266H152.537V250.727H150.191V266ZM151.384 248.182C152.299 248.182 153.054 247.466 153.054 246.591C153.054 245.716 152.299 245 151.384 245C150.469 245 149.713 245.716 149.713 246.591C149.713 247.466 150.469 248.182 151.384 248.182ZM156.835 266H159.182V260.283L160.822 258.761L166.54 266H169.523L162.592 257.25L169.045 250.727H166.142L159.46 257.528H159.182V245.636H156.835V266ZM177.84 266.318C180.942 266.318 183.21 264.767 183.925 262.46L181.658 261.824C181.062 263.415 179.68 264.21 177.84 264.21C175.086 264.21 173.187 262.43 173.077 259.159H184.164V258.165C184.164 252.477 180.783 250.528 177.602 250.528C173.465 250.528 170.721 253.79 170.721 258.483C170.721 263.176 173.425 266.318 177.84 266.318ZM173.077 257.131C173.237 254.754 174.917 252.636 177.602 252.636C180.147 252.636 181.778 254.545 181.778 257.131H173.077ZM193.501 266.318C196.444 266.318 197.438 264.489 197.955 263.653H198.234V266H200.501V245.636H198.154V253.153H197.955C197.438 252.358 196.523 250.528 193.54 250.528C189.683 250.528 187.018 253.591 187.018 258.403C187.018 263.256 189.683 266.318 193.501 266.318ZM193.819 264.21C190.876 264.21 189.364 261.625 189.364 258.364C189.364 255.142 190.836 252.636 193.819 252.636C196.683 252.636 198.194 254.943 198.194 258.364C198.194 261.824 196.643 264.21 193.819 264.21ZM219.641 250.727H216.38V247.068H214.033V250.727H211.727V252.716H214.033V262.261C214.033 264.926 216.181 266.199 218.17 266.199C219.045 266.199 219.602 266.04 219.92 265.92L219.442 263.812C219.244 263.852 218.925 263.932 218.408 263.932C217.374 263.932 216.38 263.614 216.38 261.625V252.716H219.641V250.727ZM225.846 256.812C225.846 254.148 227.546 252.636 229.863 252.636C232.07 252.636 233.403 254.028 233.403 256.455V266H235.749V256.295C235.749 252.368 233.661 250.528 230.539 250.528C228.133 250.528 226.761 251.533 226.045 253.114H225.846V245.636H223.499V266H225.846V256.812ZM246.446 266.318C249.548 266.318 251.815 264.767 252.531 262.46L250.264 261.824C249.667 263.415 248.285 264.21 246.446 264.21C243.691 264.21 241.792 262.43 241.683 259.159H252.77V258.165C252.77 252.477 249.389 250.528 246.207 250.528C242.071 250.528 239.326 253.79 239.326 258.483C239.326 263.176 242.031 266.318 246.446 266.318ZM241.683 257.131C241.842 254.754 243.522 252.636 246.207 252.636C248.752 252.636 250.383 254.545 250.383 257.131H241.683ZM270.419 266.318C273.799 266.318 276.027 264.25 276.424 261.545H274.078C273.64 263.216 272.248 264.21 270.419 264.21C267.635 264.21 265.845 261.903 265.845 258.364C265.845 254.903 267.674 252.636 270.419 252.636C272.487 252.636 273.72 253.909 274.078 255.301H276.424C276.027 252.438 273.6 250.528 270.379 250.528C266.243 250.528 263.498 253.79 263.498 258.443C263.498 263.017 266.123 266.318 270.419 266.318ZM289.48 259.756C289.48 262.619 287.292 263.932 285.542 263.932C283.593 263.932 282.201 262.5 282.201 260.273V250.727H279.855V260.432C279.855 264.33 281.923 266.199 284.787 266.199C287.093 266.199 288.605 264.966 289.321 263.415H289.48V266H291.826V250.727H289.48V259.756ZM296.124 266H298.471V256.335C298.471 254.267 300.102 252.756 302.329 252.756C302.955 252.756 303.602 252.875 303.761 252.915V250.528C303.492 250.509 302.876 250.489 302.528 250.489C300.698 250.489 299.107 251.523 298.55 253.034H298.391V250.727H296.124V266ZM306.542 266H308.889V256.335C308.889 254.267 310.52 252.756 312.747 252.756C313.373 252.756 314.02 252.875 314.179 252.915V250.528C313.91 250.509 313.294 250.489 312.946 250.489C311.116 250.489 309.525 251.523 308.968 253.034H308.809V250.727H306.542V266ZM322.899 266.318C326.001 266.318 328.268 264.767 328.984 262.46L326.717 261.824C326.12 263.415 324.738 264.21 322.899 264.21C320.145 264.21 318.245 262.43 318.136 259.159H329.223V258.165C329.223 252.477 325.842 250.528 322.66 250.528C318.524 250.528 315.779 253.79 315.779 258.483C315.779 263.176 318.484 266.318 322.899 266.318ZM318.136 257.131C318.295 254.754 319.975 252.636 322.66 252.636C325.206 252.636 326.836 254.545 326.836 257.131H318.136ZM335.139 256.812C335.139 254.148 336.789 252.636 339.037 252.636C341.214 252.636 342.537 254.058 342.537 256.455V266H344.883V256.295C344.883 252.398 342.805 250.528 339.713 250.528C337.406 250.528 335.974 251.562 335.258 253.114H335.059V250.727H332.792V266H335.139V256.812ZM355.813 250.727H352.552V247.068H350.205V250.727H347.898V252.716H350.205V262.261C350.205 264.926 352.353 266.199 354.342 266.199C355.217 266.199 355.773 266.04 356.092 265.92L355.614 263.812C355.415 263.852 355.097 263.932 354.58 263.932C353.546 263.932 352.552 263.614 352.552 261.625V252.716H355.813V250.727ZM367.218 271.727H369.565V263.653H369.763C370.281 264.489 371.275 266.318 374.218 266.318C378.036 266.318 380.701 263.256 380.701 258.403C380.701 253.591 378.036 250.528 374.178 250.528C371.195 250.528 370.281 252.358 369.763 253.153H369.485V250.727H367.218V271.727ZM369.525 258.364C369.525 254.943 371.036 252.636 373.9 252.636C376.883 252.636 378.354 255.142 378.354 258.364C378.354 261.625 376.843 264.21 373.9 264.21C371.076 264.21 369.525 261.824 369.525 258.364ZM384.281 266H386.627V256.335C386.627 254.267 388.258 252.756 390.485 252.756C391.112 252.756 391.758 252.875 391.917 252.915V250.528C391.648 250.509 391.032 250.489 390.684 250.489C388.854 250.489 387.263 251.523 386.707 253.034H386.548V250.727H384.281V266ZM400.438 266.318C404.575 266.318 407.359 263.176 407.359 258.443C407.359 253.67 404.575 250.528 400.438 250.528C396.302 250.528 393.518 253.67 393.518 258.443C393.518 263.176 396.302 266.318 400.438 266.318ZM400.438 264.21C397.296 264.21 395.864 261.506 395.864 258.443C395.864 255.381 397.296 252.636 400.438 252.636C403.58 252.636 405.012 255.381 405.012 258.443C405.012 261.506 403.58 264.21 400.438 264.21ZM417.145 266.318C420.526 266.318 422.753 264.25 423.151 261.545H420.804C420.367 263.216 418.975 264.21 417.145 264.21C414.361 264.21 412.571 261.903 412.571 258.364C412.571 254.903 414.401 252.636 417.145 252.636C419.213 252.636 420.446 253.909 420.804 255.301H423.151C422.753 252.438 420.327 250.528 417.105 250.528C412.969 250.528 410.225 253.79 410.225 258.443C410.225 263.017 412.85 266.318 417.145 266.318ZM432.985 266.318C436.087 266.318 438.354 264.767 439.07 262.46L436.803 261.824C436.206 263.415 434.824 264.21 432.985 264.21C430.23 264.21 428.331 262.43 428.222 259.159H439.309V258.165C439.309 252.477 435.928 250.528 432.746 250.528C428.61 250.528 425.865 253.79 425.865 258.483C425.865 263.176 428.57 266.318 432.985 266.318ZM428.222 257.131C428.381 254.754 430.061 252.636 432.746 252.636C435.292 252.636 436.922 254.545 436.922 257.131H428.222ZM453.696 254.148C452.961 251.98 451.31 250.528 448.287 250.528C445.066 250.528 442.679 252.358 442.679 254.943C442.679 257.051 443.932 258.463 446.736 259.119L449.282 259.716C450.823 260.074 451.549 260.81 451.549 261.864C451.549 263.176 450.157 264.25 447.969 264.25C446.05 264.25 444.847 263.425 444.429 261.784L442.202 262.341C442.749 264.936 444.887 266.318 448.009 266.318C451.559 266.318 453.975 264.379 453.975 261.744C453.975 259.616 452.642 258.274 449.918 257.608L447.651 257.051C445.841 256.604 445.026 255.997 445.026 254.824C445.026 253.511 446.418 252.557 448.287 252.557C450.336 252.557 451.181 253.69 451.588 254.744L453.696 254.148ZM468.325 254.148C467.589 251.98 465.939 250.528 462.916 250.528C459.695 250.528 457.308 252.358 457.308 254.943C457.308 257.051 458.561 258.463 461.365 259.119L463.911 259.716C465.452 260.074 466.178 260.81 466.178 261.864C466.178 263.176 464.786 264.25 462.598 264.25C460.679 264.25 459.476 263.425 459.058 261.784L456.831 262.341C457.378 264.936 459.516 266.318 462.638 266.318C466.188 266.318 468.604 264.379 468.604 261.744C468.604 259.616 467.271 258.274 464.547 257.608L462.28 257.051C460.47 256.604 459.655 255.997 459.655 254.824C459.655 253.511 461.047 252.557 462.916 252.557C464.964 252.557 465.81 253.69 466.217 254.744L468.325 254.148ZM473.846 266.159C474.831 266.159 475.636 265.354 475.636 264.369C475.636 263.385 474.831 262.58 473.846 262.58C472.862 262.58 472.056 263.385 472.056 264.369C472.056 265.354 472.862 266.159 473.846 266.159Z" fill="#E0E0E0"/>
<path d="M652.165 266H654.71L659.205 249.773H659.364L663.858 266H666.403L671.972 245.636H669.466L665.21 262.222H665.011L660.676 245.636H657.892L653.557 262.222H653.358L649.102 245.636H646.597L652.165 266ZM679.509 266.318C683.645 266.318 686.429 263.176 686.429 258.443C686.429 253.67 683.645 250.528 679.509 250.528C675.372 250.528 672.588 253.67 672.588 258.443C672.588 263.176 675.372 266.318 679.509 266.318ZM679.509 264.21C676.366 264.21 674.935 261.506 674.935 258.443C674.935 255.381 676.366 252.636 679.509 252.636C682.651 252.636 684.082 255.381 684.082 258.443C684.082 261.506 682.651 264.21 679.509 264.21ZM699.636 259.756C699.636 262.619 697.449 263.932 695.699 263.932C693.75 263.932 692.358 262.5 692.358 260.273V250.727H690.011V260.432C690.011 264.33 692.079 266.199 694.943 266.199C697.25 266.199 698.761 264.966 699.477 263.415H699.636V266H701.983V250.727H699.636V259.756ZM708.627 245.636H706.281V266H708.627V245.636ZM718.692 266.318C721.635 266.318 722.63 264.489 723.147 263.653H723.425V266H725.692V245.636H723.346V253.153H723.147C722.63 252.358 721.715 250.528 718.732 250.528C714.874 250.528 712.209 253.591 712.209 258.403C712.209 263.256 714.874 266.318 718.692 266.318ZM719.01 264.21C716.067 264.21 714.556 261.625 714.556 258.364C714.556 255.142 716.027 252.636 719.01 252.636C721.874 252.636 723.385 254.943 723.385 258.364C723.385 261.824 721.834 264.21 719.01 264.21ZM732.662 256.812C732.662 254.148 734.313 252.636 736.56 252.636C738.738 252.636 740.06 254.058 740.06 256.455V266H742.407V256.295C742.407 252.398 740.328 250.528 737.236 250.528C734.929 250.528 733.498 251.562 732.782 253.114H732.583V250.727H730.316V266H732.662V256.812ZM748.763 245.636H746.536V247.466C746.536 248.938 745.82 250.21 744.984 251.403L746.257 252.438C747.848 251.165 748.763 249.057 748.763 247.426V245.636ZM758.915 250.727H755.653V247.068H753.307V250.727H751V252.716H753.307V262.261C753.307 264.926 755.455 266.199 757.443 266.199C758.318 266.199 758.875 266.04 759.193 265.92L758.716 263.812C758.517 263.852 758.199 263.932 757.682 263.932C756.648 263.932 755.653 263.614 755.653 261.625V252.716H758.915V250.727ZM779.945 259.756C779.945 262.619 777.757 263.932 776.007 263.932C774.058 263.932 772.666 262.5 772.666 260.273V250.727H770.32V260.432C770.32 264.33 772.388 266.199 775.251 266.199C777.558 266.199 779.07 264.966 779.786 263.415H779.945V266H782.291V250.727H779.945V259.756ZM797.407 254.148C796.672 251.98 795.021 250.528 791.998 250.528C788.777 250.528 786.39 252.358 786.39 254.943C786.39 257.051 787.643 258.463 790.447 259.119L792.993 259.716C794.534 260.074 795.26 260.81 795.26 261.864C795.26 263.176 793.868 264.25 791.68 264.25C789.761 264.25 788.558 263.425 788.14 261.784L785.913 262.341C786.46 264.936 788.598 266.318 791.72 266.318C795.27 266.318 797.686 264.379 797.686 261.744C797.686 259.616 796.353 258.274 793.629 257.608L791.362 257.051C789.552 256.604 788.737 255.997 788.737 254.824C788.737 253.511 790.129 252.557 791.998 252.557C794.047 252.557 794.892 253.69 795.299 254.744L797.407 254.148ZM807.621 266.318C810.724 266.318 812.991 264.767 813.707 262.46L811.44 261.824C810.843 263.415 809.461 264.21 807.621 264.21C804.867 264.21 802.968 262.43 802.859 259.159H813.945V258.165C813.945 252.477 810.565 250.528 807.383 250.528C803.246 250.528 800.502 253.79 800.502 258.483C800.502 263.176 803.207 266.318 807.621 266.318ZM802.859 257.131C803.018 254.754 804.698 252.636 807.383 252.636C809.928 252.636 811.559 254.545 811.559 257.131H802.859ZM825.39 266H827.737V250.727H825.39V266ZM826.583 248.182C827.498 248.182 828.254 247.466 828.254 246.591C828.254 245.716 827.498 245 826.583 245C825.668 245 824.913 245.716 824.913 246.591C824.913 247.466 825.668 248.182 826.583 248.182ZM838.676 250.727H835.415V247.068H833.069V250.727H830.762V252.716H833.069V262.261C833.069 264.926 835.216 266.199 837.205 266.199C838.08 266.199 838.637 266.04 838.955 265.92L838.478 263.812C838.279 263.852 837.961 263.932 837.444 263.932C836.409 263.932 835.415 263.614 835.415 261.625V252.716H838.676V250.727ZM854.576 266.358C857.24 266.358 858.632 264.926 859.11 263.932H859.229V266H861.576V255.938C861.576 251.085 857.877 250.528 855.928 250.528C853.621 250.528 850.996 251.324 849.803 254.108L852.03 254.903C852.547 253.79 853.77 252.597 856.007 252.597C858.165 252.597 859.229 253.74 859.229 255.699V255.778C859.229 256.912 858.076 256.812 855.292 257.17C852.458 257.538 849.365 258.165 849.365 261.665C849.365 264.648 851.672 266.358 854.576 266.358ZM854.934 264.25C853.064 264.25 851.712 263.415 851.712 261.784C851.712 259.994 853.343 259.438 855.172 259.199C856.167 259.08 858.831 258.801 859.229 258.324V260.472C859.229 262.381 857.718 264.25 854.934 264.25ZM872.023 272.045C875.683 272.045 878.626 270.375 878.626 266.438V250.727H876.359V253.153H876.12C875.603 252.358 874.648 250.528 871.665 250.528C867.808 250.528 865.143 253.591 865.143 258.284C865.143 263.057 867.927 265.761 871.626 265.761C874.609 265.761 875.563 264.011 876.08 263.176H876.279V266.278C876.279 268.824 874.489 269.977 872.023 269.977C869.249 269.977 868.275 268.516 867.648 267.67L865.779 268.983C866.734 270.584 868.613 272.045 872.023 272.045ZM871.944 263.653C869.001 263.653 867.489 261.426 867.489 258.244C867.489 255.142 868.961 252.636 871.944 252.636C874.808 252.636 876.319 254.943 876.319 258.244C876.319 261.625 874.768 263.653 871.944 263.653ZM887.415 266.358C890.08 266.358 891.472 264.926 891.95 263.932H892.069V266H894.415V255.938C894.415 251.085 890.717 250.528 888.768 250.528C886.461 250.528 883.836 251.324 882.643 254.108L884.87 254.903C885.387 253.79 886.61 252.597 888.847 252.597C891.005 252.597 892.069 253.74 892.069 255.699V255.778C892.069 256.912 890.915 256.812 888.131 257.17C885.298 257.538 882.205 258.165 882.205 261.665C882.205 264.648 884.512 266.358 887.415 266.358ZM887.773 264.25C885.904 264.25 884.552 263.415 884.552 261.784C884.552 259.994 886.183 259.438 888.012 259.199C889.006 259.08 891.671 258.801 892.069 258.324V260.472C892.069 262.381 890.558 264.25 887.773 264.25ZM898.699 266H901.045V250.727H898.699V266ZM899.892 248.182C900.806 248.182 901.562 247.466 901.562 246.591C901.562 245.716 900.806 245 899.892 245C898.977 245 898.221 245.716 898.221 246.591C898.221 247.466 898.977 248.182 899.892 248.182ZM907.69 256.812C907.69 254.148 909.34 252.636 911.587 252.636C913.765 252.636 915.087 254.058 915.087 256.455V266H917.434V256.295C917.434 252.398 915.356 250.528 912.263 250.528C909.957 250.528 908.525 251.562 907.809 253.114H907.61V250.727H905.343V266H907.69V256.812ZM923.432 266.159C924.417 266.159 925.222 265.354 925.222 264.369C925.222 263.385 924.417 262.58 923.432 262.58C922.448 262.58 921.642 263.385 921.642 264.369C921.642 265.354 922.448 266.159 923.432 266.159Z" fill="#E0E0E0"/>
<path d="M113.602 495.727H115.989C115.879 492.655 113.045 490.358 109.108 490.358C105.21 490.358 102.148 492.625 102.148 496.045C102.148 498.79 104.136 500.42 107.318 501.335L109.824 502.051C111.972 502.648 113.881 503.403 113.881 505.432C113.881 507.659 111.733 509.131 108.909 509.131C106.483 509.131 104.335 508.057 104.136 505.75H101.591C101.83 509.091 104.534 511.358 108.909 511.358C113.602 511.358 116.267 508.773 116.267 505.472C116.267 501.653 112.648 500.42 110.54 499.864L108.472 499.307C106.96 498.909 104.534 498.114 104.534 495.926C104.534 493.977 106.324 492.545 109.028 492.545C111.494 492.545 113.364 493.719 113.602 495.727ZM124.498 511.358C127.162 511.358 128.554 509.926 129.032 508.932H129.151V511H131.498V500.938C131.498 496.085 127.799 495.528 125.85 495.528C123.543 495.528 120.918 496.324 119.725 499.108L121.952 499.903C122.469 498.79 123.692 497.597 125.929 497.597C128.087 497.597 129.151 498.74 129.151 500.699V500.778C129.151 501.912 127.998 501.812 125.213 502.17C122.38 502.538 119.287 503.165 119.287 506.665C119.287 509.648 121.594 511.358 124.498 511.358ZM124.855 509.25C122.986 509.25 121.634 508.415 121.634 506.784C121.634 504.994 123.265 504.438 125.094 504.199C126.088 504.08 128.753 503.801 129.151 503.324V505.472C129.151 507.381 127.64 509.25 124.855 509.25ZM135.781 511H138.127V495.727H135.781V511ZM136.974 493.182C137.888 493.182 138.644 492.466 138.644 491.591C138.644 490.716 137.888 490 136.974 490C136.059 490 135.303 490.716 135.303 491.591C135.303 492.466 136.059 493.182 136.974 493.182ZM148.192 511.318C151.135 511.318 152.13 509.489 152.647 508.653H152.925V511H155.192V490.636H152.846V498.153H152.647C152.13 497.358 151.215 495.528 148.232 495.528C144.374 495.528 141.709 498.591 141.709 503.403C141.709 508.256 144.374 511.318 148.192 511.318ZM148.51 509.21C145.567 509.21 144.056 506.625 144.056 503.364C144.056 500.142 145.527 497.636 148.51 497.636C151.374 497.636 152.885 499.943 152.885 503.364C152.885 506.824 151.334 509.21 148.51 509.21ZM174.333 495.727H171.071V492.068H168.725V495.727H166.418V497.716H168.725V507.261C168.725 509.926 170.873 511.199 172.861 511.199C173.736 511.199 174.293 511.04 174.611 510.92L174.134 508.812C173.935 508.852 173.617 508.932 173.1 508.932C172.066 508.932 171.071 508.614 171.071 506.625V497.716H174.333V495.727ZM180.537 501.812C180.537 499.148 182.238 497.636 184.554 497.636C186.762 497.636 188.094 499.028 188.094 501.455V511H190.441V501.295C190.441 497.368 188.353 495.528 185.23 495.528C182.824 495.528 181.452 496.533 180.736 498.114H180.537V490.636H178.191V511H180.537V501.812ZM201.137 511.318C204.239 511.318 206.506 509.767 207.222 507.46L204.955 506.824C204.359 508.415 202.977 509.21 201.137 509.21C198.383 509.21 196.484 507.43 196.374 504.159H207.461V503.165C207.461 497.477 204.08 495.528 200.898 495.528C196.762 495.528 194.018 498.79 194.018 503.483C194.018 508.176 196.722 511.318 201.137 511.318ZM196.374 502.131C196.533 499.754 198.214 497.636 200.898 497.636C203.444 497.636 205.075 499.545 205.075 502.131H196.374ZM218.906 516.727H221.252V508.653H221.451C221.968 509.489 222.962 511.318 225.906 511.318C229.724 511.318 232.388 508.256 232.388 503.403C232.388 498.591 229.724 495.528 225.866 495.528C222.883 495.528 221.968 497.358 221.451 498.153H221.173V495.727H218.906V516.727ZM221.212 503.364C221.212 499.943 222.724 497.636 225.587 497.636C228.57 497.636 230.042 500.142 230.042 503.364C230.042 506.625 228.531 509.21 225.587 509.21C222.763 509.21 221.212 506.824 221.212 503.364ZM235.968 511H238.315V501.335C238.315 499.267 239.945 497.756 242.173 497.756C242.799 497.756 243.445 497.875 243.604 497.915V495.528C243.336 495.509 242.719 495.489 242.371 495.489C240.542 495.489 238.951 496.523 238.394 498.034H238.235V495.727H235.968V511ZM252.126 511.318C256.262 511.318 259.046 508.176 259.046 503.443C259.046 498.67 256.262 495.528 252.126 495.528C247.989 495.528 245.205 498.67 245.205 503.443C245.205 508.176 247.989 511.318 252.126 511.318ZM252.126 509.21C248.984 509.21 247.552 506.506 247.552 503.443C247.552 500.381 248.984 497.636 252.126 497.636C255.268 497.636 256.7 500.381 256.7 503.443C256.7 506.506 255.268 509.21 252.126 509.21ZM268.833 511.318C272.213 511.318 274.441 509.25 274.838 506.545H272.492C272.054 508.216 270.662 509.21 268.833 509.21C266.049 509.21 264.259 506.903 264.259 503.364C264.259 499.903 266.088 497.636 268.833 497.636C270.901 497.636 272.134 498.909 272.492 500.301H274.838C274.441 497.438 272.015 495.528 268.793 495.528C264.657 495.528 261.912 498.79 261.912 503.443C261.912 508.017 264.537 511.318 268.833 511.318ZM284.672 511.318C287.775 511.318 290.042 509.767 290.757 507.46L288.49 506.824C287.894 508.415 286.512 509.21 284.672 509.21C281.918 509.21 280.019 507.43 279.909 504.159H290.996V503.165C290.996 497.477 287.615 495.528 284.434 495.528C280.297 495.528 277.553 498.79 277.553 503.483C277.553 508.176 280.257 511.318 284.672 511.318ZM279.909 502.131C280.069 499.754 281.749 497.636 284.434 497.636C286.979 497.636 288.61 499.545 288.61 502.131H279.909ZM305.384 499.148C304.648 496.98 302.998 495.528 299.975 495.528C296.753 495.528 294.367 497.358 294.367 499.943C294.367 502.051 295.62 503.463 298.424 504.119L300.969 504.716C302.51 505.074 303.236 505.81 303.236 506.864C303.236 508.176 301.844 509.25 299.657 509.25C297.738 509.25 296.534 508.425 296.117 506.784L293.89 507.341C294.436 509.936 296.574 511.318 299.696 511.318C303.246 511.318 305.662 509.379 305.662 506.744C305.662 504.616 304.33 503.274 301.605 502.608L299.338 502.051C297.529 501.604 296.713 500.997 296.713 499.824C296.713 498.511 298.105 497.557 299.975 497.557C302.023 497.557 302.868 498.69 303.276 499.744L305.384 499.148ZM320.013 499.148C319.277 496.98 317.626 495.528 314.604 495.528C311.382 495.528 308.996 497.358 308.996 499.943C308.996 502.051 310.249 503.463 313.053 504.119L315.598 504.716C317.139 505.074 317.865 505.81 317.865 506.864C317.865 508.176 316.473 509.25 314.286 509.25C312.366 509.25 311.163 508.425 310.746 506.784L308.518 507.341C309.065 509.936 311.203 511.318 314.325 511.318C317.875 511.318 320.291 509.379 320.291 506.744C320.291 504.616 318.959 503.274 316.234 502.608L313.967 502.051C312.158 501.604 311.342 500.997 311.342 499.824C311.342 498.511 312.734 497.557 314.604 497.557C316.652 497.557 317.497 498.69 317.905 499.744L320.013 499.148ZM335.159 511H337.466L340.806 499.267H341.045L344.386 511H346.693L351.346 495.727H348.88L345.579 507.381H345.42L342.199 495.727H339.693L336.431 507.42H336.272L332.971 495.727H330.505L335.159 511ZM358.943 511.358C361.608 511.358 363 509.926 363.477 508.932H363.596V511H365.943V500.938C365.943 496.085 362.244 495.528 360.295 495.528C357.988 495.528 355.363 496.324 354.17 499.108L356.397 499.903C356.914 498.79 358.137 497.597 360.375 497.597C362.532 497.597 363.596 498.74 363.596 500.699V500.778C363.596 501.912 362.443 501.812 359.659 502.17C356.825 502.538 353.733 503.165 353.733 506.665C353.733 509.648 356.039 511.358 358.943 511.358ZM359.301 509.25C357.431 509.25 356.079 508.415 356.079 506.784C356.079 504.994 357.71 504.438 359.539 504.199C360.534 504.08 363.199 503.801 363.596 503.324V505.472C363.596 507.381 362.085 509.25 359.301 509.25ZM381.044 499.148C380.308 496.98 378.658 495.528 375.635 495.528C372.413 495.528 370.027 497.358 370.027 499.943C370.027 502.051 371.28 503.463 374.084 504.119L376.629 504.716C378.17 505.074 378.896 505.81 378.896 506.864C378.896 508.176 377.504 509.25 375.317 509.25C373.398 509.25 372.195 508.425 371.777 506.784L369.55 507.341C370.097 509.936 372.234 511.318 375.357 511.318C378.906 511.318 381.322 509.379 381.322 506.744C381.322 504.616 379.99 503.274 377.266 502.608L374.999 502.051C373.189 501.604 372.374 500.997 372.374 499.824C372.374 498.511 373.766 497.557 375.635 497.557C377.683 497.557 378.528 498.69 378.936 499.744L381.044 499.148ZM395.076 490.636H392.73V511H395.076V490.636ZM405.579 511.318C409.715 511.318 412.499 508.176 412.499 503.443C412.499 498.67 409.715 495.528 405.579 495.528C401.442 495.528 398.658 498.67 398.658 503.443C398.658 508.176 401.442 511.318 405.579 511.318ZM405.579 509.21C402.437 509.21 401.005 506.506 401.005 503.443C401.005 500.381 402.437 497.636 405.579 497.636C408.721 497.636 410.153 500.381 410.153 503.443C410.153 506.506 408.721 509.21 405.579 509.21ZM418.428 501.812C418.428 499.148 420.078 497.636 422.326 497.636C424.503 497.636 425.826 499.058 425.826 501.455V511H428.172V501.295C428.172 497.398 426.094 495.528 423.002 495.528C420.695 495.528 419.263 496.562 418.547 498.114H418.348V495.727H416.081V511H418.428V501.812ZM438.625 517.045C442.284 517.045 445.227 515.375 445.227 511.438V495.727H442.96V498.153H442.722C442.205 497.358 441.25 495.528 438.267 495.528C434.409 495.528 431.744 498.591 431.744 503.284C431.744 508.057 434.528 510.761 438.227 510.761C441.21 510.761 442.165 509.011 442.682 508.176H442.881V511.278C442.881 513.824 441.091 514.977 438.625 514.977C435.851 514.977 434.876 513.516 434.25 512.67L432.381 513.983C433.335 515.584 435.214 517.045 438.625 517.045ZM438.545 508.653C435.602 508.653 434.091 506.426 434.091 503.244C434.091 500.142 435.562 497.636 438.545 497.636C441.409 497.636 442.92 499.943 442.92 503.244C442.92 506.625 441.369 508.653 438.545 508.653ZM451.233 511.159C452.217 511.159 453.023 510.354 453.023 509.369C453.023 508.385 452.217 507.58 451.233 507.58C450.249 507.58 449.443 508.385 449.443 509.369C449.443 510.354 450.249 511.159 451.233 511.159Z" fill="#E0E0E0"/>
<path d="M662.386 497H664.932C664.176 493.062 660.875 490.358 656.58 490.358C651.359 490.358 647.67 494.375 647.67 500.818C647.67 507.261 651.33 511.278 656.739 511.278C661.591 511.278 665.051 508.047 665.051 503.006V500.818H657.295V503.006H662.665C662.595 506.665 660.189 508.972 656.739 508.972C652.96 508.972 650.057 506.108 650.057 500.818C650.057 495.528 652.96 492.665 656.58 492.665C659.523 492.665 661.521 494.325 662.386 497ZM673.451 511.358C676.115 511.358 677.507 509.926 677.985 508.932H678.104V511H680.451V500.938C680.451 496.085 676.752 495.528 674.803 495.528C672.496 495.528 669.871 496.324 668.678 499.108L670.905 499.903C671.422 498.79 672.645 497.597 674.882 497.597C677.04 497.597 678.104 498.74 678.104 500.699V500.778C678.104 501.912 676.951 501.812 674.167 502.17C671.333 502.538 668.24 503.165 668.24 506.665C668.24 509.648 670.547 511.358 673.451 511.358ZM673.809 509.25C671.939 509.25 670.587 508.415 670.587 506.784C670.587 504.994 672.218 504.438 674.047 504.199C675.042 504.08 677.706 503.801 678.104 503.324V505.472C678.104 507.381 676.593 509.25 673.809 509.25ZM696.675 495.727H694.13L689.914 507.898H689.755L685.539 495.727H682.994L688.641 511H691.028L696.675 495.727ZM705.629 511.318C708.732 511.318 710.999 509.767 711.714 507.46L709.447 506.824C708.851 508.415 707.469 509.21 705.629 509.21C702.875 509.21 700.976 507.43 700.866 504.159H711.953V503.165C711.953 497.477 708.572 495.528 705.391 495.528C701.254 495.528 698.51 498.79 698.51 503.483C698.51 508.176 701.214 511.318 705.629 511.318ZM700.866 502.131C701.026 499.754 702.706 497.636 705.391 497.636C707.936 497.636 709.567 499.545 709.567 502.131H700.866ZM733.023 504.756C733.023 507.619 730.835 508.932 729.085 508.932C727.136 508.932 725.744 507.5 725.744 505.273V495.727H723.398V505.432C723.398 509.33 725.466 511.199 728.33 511.199C730.636 511.199 732.148 509.966 732.864 508.415H733.023V511H735.369V495.727H733.023V504.756ZM739.667 516.727H742.014V508.653H742.213C742.73 509.489 743.724 511.318 746.667 511.318C750.485 511.318 753.15 508.256 753.15 503.403C753.15 498.591 750.485 495.528 746.627 495.528C743.645 495.528 742.73 497.358 742.213 498.153H741.934V495.727H739.667V516.727ZM741.974 503.364C741.974 499.943 743.485 497.636 746.349 497.636C749.332 497.636 750.804 500.142 750.804 503.364C750.804 506.625 749.292 509.21 746.349 509.21C743.525 509.21 741.974 506.824 741.974 503.364ZM764.605 511H766.951V501.455C766.951 499.217 768.582 497.636 770.412 497.636C772.191 497.636 773.434 498.8 773.434 500.54V511H775.821V501.057C775.821 499.088 777.054 497.636 779.201 497.636C780.872 497.636 782.304 498.521 782.304 500.778V511H784.65V500.778C784.65 497.189 782.721 495.528 779.997 495.528C777.809 495.528 776.208 496.533 775.423 498.114H775.264C774.508 496.483 773.176 495.528 771.167 495.528C769.179 495.528 767.707 496.483 767.071 498.114H766.872V495.727H764.605V511ZM788.941 511H791.287V495.727H788.941V511ZM790.134 493.182C791.049 493.182 791.804 492.466 791.804 491.591C791.804 490.716 791.049 490 790.134 490C789.219 490 788.463 490.716 788.463 491.591C788.463 492.466 789.219 493.182 790.134 493.182ZM801.352 511.318C804.295 511.318 805.29 509.489 805.807 508.653H806.085V511H808.352V490.636H806.006V498.153H805.807C805.29 497.358 804.375 495.528 801.392 495.528C797.534 495.528 794.869 498.591 794.869 503.403C794.869 508.256 797.534 511.318 801.352 511.318ZM801.67 509.21C798.727 509.21 797.216 506.625 797.216 503.364C797.216 500.142 798.688 497.636 801.67 497.636C804.534 497.636 806.045 499.943 806.045 503.364C806.045 506.824 804.494 509.21 801.67 509.21ZM816.436 511H818.743L822.084 499.267H822.322L825.663 511H827.97L832.624 495.727H830.158L826.857 507.381H826.697L823.476 495.727H820.97L817.709 507.42H817.55L814.249 495.727H811.783L816.436 511ZM840.22 511.358C842.885 511.358 844.277 509.926 844.754 508.932H844.874V511H847.22V500.938C847.22 496.085 843.521 495.528 841.572 495.528C839.266 495.528 836.641 496.324 835.447 499.108L837.675 499.903C838.192 498.79 839.415 497.597 841.652 497.597C843.81 497.597 844.874 498.74 844.874 500.699V500.778C844.874 501.912 843.72 501.812 840.936 502.17C838.102 502.538 835.01 503.165 835.01 506.665C835.01 509.648 837.317 511.358 840.22 511.358ZM840.578 509.25C838.709 509.25 837.357 508.415 837.357 506.784C837.357 504.994 838.987 504.438 840.817 504.199C841.811 504.08 844.476 503.801 844.874 503.324V505.472C844.874 507.381 843.362 509.25 840.578 509.25ZM852.468 516.727C854.586 516.727 856.077 515.604 856.962 513.227L863.465 495.767L860.9 495.727L856.684 507.898H856.525L852.309 495.727H849.763L855.411 511.08L854.973 512.273C854.118 514.599 853.064 514.818 851.354 514.381L850.757 516.449C850.996 516.568 851.672 516.727 852.468 516.727ZM881.087 495.727H877.825V492.068H875.479V495.727H873.172V497.716H875.479V507.261C875.479 509.926 877.626 511.199 879.615 511.199C880.49 511.199 881.047 511.04 881.365 510.92L880.888 508.812C880.689 508.852 880.371 508.932 879.854 508.932C878.82 508.932 877.825 508.614 877.825 506.625V497.716H881.087V495.727ZM887.291 501.812C887.291 499.148 888.991 497.636 891.308 497.636C893.516 497.636 894.848 499.028 894.848 501.455V511H897.195V501.295C897.195 497.368 895.107 495.528 891.984 495.528C889.578 495.528 888.206 496.533 887.49 498.114H887.291V490.636H884.945V511H887.291V501.812ZM901.488 511H903.834V501.335C903.834 499.267 905.465 497.756 907.692 497.756C908.319 497.756 908.965 497.875 909.124 497.915V495.528C908.855 495.509 908.239 495.489 907.891 495.489C906.061 495.489 904.471 496.523 903.914 498.034H903.755V495.727H901.488V511ZM917.645 511.318C921.782 511.318 924.566 508.176 924.566 503.443C924.566 498.67 921.782 495.528 917.645 495.528C913.509 495.528 910.725 498.67 910.725 503.443C910.725 508.176 913.509 511.318 917.645 511.318ZM917.645 509.21C914.503 509.21 913.071 506.506 913.071 503.443C913.071 500.381 914.503 497.636 917.645 497.636C920.787 497.636 922.219 500.381 922.219 503.443C922.219 506.506 920.787 509.21 917.645 509.21ZM937.773 504.756C937.773 507.619 935.585 508.932 933.835 508.932C931.886 508.932 930.494 507.5 930.494 505.273V495.727H928.148V505.432C928.148 509.33 930.216 511.199 933.08 511.199C935.386 511.199 936.898 509.966 937.614 508.415H937.773V511H940.119V495.727H937.773V504.756ZM950.582 517.045C954.241 517.045 957.184 515.375 957.184 511.438V495.727H954.917V498.153H954.679C954.162 497.358 953.207 495.528 950.224 495.528C946.366 495.528 943.701 498.591 943.701 503.284C943.701 508.057 946.485 510.761 950.184 510.761C953.167 510.761 954.122 509.011 954.639 508.176H954.838V511.278C954.838 513.824 953.048 514.977 950.582 514.977C947.808 514.977 946.833 513.516 946.207 512.67L944.338 513.983C945.292 515.584 947.172 517.045 950.582 517.045ZM950.502 508.653C947.559 508.653 946.048 506.426 946.048 503.244C946.048 500.142 947.52 497.636 950.502 497.636C953.366 497.636 954.877 499.943 954.877 503.244C954.877 506.625 953.326 508.653 950.502 508.653ZM963.826 501.812C963.826 499.148 965.527 497.636 967.843 497.636C970.051 497.636 971.383 499.028 971.383 501.455V511H973.73V501.295C973.73 497.368 971.642 495.528 968.52 495.528C966.113 495.528 964.741 496.533 964.025 498.114H963.826V490.636H961.48V511H963.826V501.812ZM979.733 511.159C980.717 511.159 981.523 510.354 981.523 509.369C981.523 508.385 980.717 507.58 979.733 507.58C978.749 507.58 977.943 508.385 977.943 509.369C977.943 510.354 978.749 511.159 979.733 511.159Z" fill="#E0E0E0"/>
</svg>
