<svg width="789" height="500" viewBox="0 0 789 500" fill="none" xmlns="http://www.w3.org/2000/svg">
<path d="M0 20C0 8.95432 8.95431 0 20 0H769C780.046 0 789 8.9543 789 20V480C789 491.046 780.046 500 769 500H20C8.95431 500 0 491.046 0 480V20Z" fill="url(#paint0_linear)"/>
<path d="M478 186.5C482.142 186.5 485.5 189.861 485.5 194.005V299.995C485.5 304.14 482.141 307.5 477.998 307.5C477.716 307.5 477.492 307.724 477.492 308C477.492 308.276 477.716 308.5 477.992 308.5C482.694 308.5 486.5 304.692 486.5 299.995V194.005C486.5 189.309 482.694 185.5 478 185.5H468C467.724 185.5 467.5 185.724 467.5 186C467.5 186.276 467.724 186.5 468 186.5H478Z" fill="white"/>
<path d="M313 185.5C308.306 185.5 304.5 189.309 304.5 194.005V299.995C304.5 304.692 308.306 308.5 313.002 308.5C313.284 308.5 313.508 308.276 313.508 308C313.508 307.724 313.284 307.5 313.008 307.5C308.859 307.5 305.5 304.14 305.5 299.995V194.005C305.5 189.861 308.858 186.5 313 186.5H323C323.276 186.5 323.5 186.276 323.5 186C323.5 185.724 323.276 185.5 323 185.5H313Z" fill="white"/>
<path fill-rule="evenodd" clip-rule="evenodd" d="M478 301.2L313.8 301L314 194.8L478.2 195L478 301.2ZM477.8 301L478 195.2L314.2 195L314 300.8L477.8 301Z" fill="white"/>
<rect x="313" y="185.5" width="165" height="1" fill="white"/>
<path fill-rule="evenodd" clip-rule="evenodd" d="M396 192C396.552 192 397 191.552 397 191C397 190.448 396.552 190 396 190C395.448 190 395 190.448 395 191C395 191.552 395.448 192 396 192Z" fill="white"/>
<path fill-rule="evenodd" clip-rule="evenodd" d="M377.8 308V307.8H378H413H413.2V308V309.5C413.2 310.441 412.441 311.2 411.496 311.2H379.504C378.561 311.2 377.8 310.443 377.8 309.5V308ZM412.8 308L413 308.2H412.8V308ZM378.2 308.2H412.8V309.5C412.8 310.22 412.22 310.8 411.496 310.8H379.504C378.782 310.8 378.2 310.222 378.2 309.5V308.2ZM378.2 308.2H378L378.2 308V308.2Z" fill="white"/>
<path fill-rule="evenodd" clip-rule="evenodd" d="M284 307.5H505V308.5H284V307.5Z" fill="white"/>
<rect x="313" y="314" width="165" height="1" fill="white"/>
<path d="M283.08 307.5H282.67L282.59 307.902C282.577 307.965 282.56 308.073 282.543 308.22C282.421 309.298 282.523 310.51 283.026 311.671C283.2 312.071 283.416 312.449 283.68 312.8C284.275 313.594 285.217 314.147 286.403 314.512C287.101 314.726 287.842 314.863 288.582 314.939C288.841 314.966 289.081 314.983 289.298 314.992C289.43 314.998 289.526 315 289.58 315H315.5V314H289.58C289.407 314 289.092 313.986 288.684 313.944C288.005 313.875 287.326 313.749 286.698 313.556C285.695 313.247 284.928 312.797 284.48 312.2C284.265 311.913 284.087 311.603 283.944 311.273C283.521 310.297 283.432 309.252 283.537 308.332C283.55 308.215 283.563 308.135 283.57 308.098L283.08 308.5H312.5V307.5H283.08Z" fill="white"/>
<path d="M506 308.5L505.51 308.098C505.517 308.135 505.53 308.215 505.543 308.332C505.648 309.252 505.559 310.297 505.136 311.273C504.993 311.603 504.816 311.913 504.6 312.2C504.152 312.797 503.385 313.247 502.383 313.556C501.754 313.749 501.076 313.875 500.396 313.944C499.988 313.986 499.673 314 499.5 314H474V315H499.5C499.554 315 499.65 314.998 499.782 314.992C499.999 314.983 500.239 314.966 500.498 314.939C501.238 314.863 501.979 314.726 502.677 314.512C503.863 314.147 504.805 313.594 505.4 312.8C505.664 312.449 505.88 312.071 506.054 311.671C506.557 310.51 506.659 309.298 506.537 308.22C506.52 308.073 506.503 307.965 506.49 307.902L506.41 307.5H506H478V308.5H506Z" fill="white"/>
<defs>
<linearGradient id="paint0_linear" x1="0" y1="0" x2="857.053" y2="349.014" gradientUnits="userSpaceOnUse">
<stop stop-color="#5359EA"/>
<stop offset="1" stop-color="#0094FF"/>
</linearGradient>
</defs>
</svg>
