<svg width="38" height="38" viewBox="0 0 38 38" fill="none" xmlns="http://www.w3.org/2000/svg">
<g opacity="0.6">
<path fill-rule="evenodd" clip-rule="evenodd" d="M25.6719 2.375C26.0044 2.375 26.2744 2.63972 26.2744 2.96655C26.2744 3.2926 26.0052 3.55732 25.6719 3.55732L24.3823 3.55809C23.312 3.55965 22.4412 4.41436 22.4412 5.46471V6.93659C22.4412 7.26264 22.1704 7.52814 21.8379 7.52814C21.5054 7.52814 21.2354 7.26264 21.2354 6.93659V5.46471C21.2354 3.76304 22.647 2.37733 24.3815 2.37578L25.6712 2.375H25.6719ZM31.3505 2.37523H32.6116C34.3509 2.37523 35.7648 3.76172 35.7648 5.46727V6.93682C35.7648 7.26287 35.4957 7.52837 35.1624 7.52837C34.8299 7.52837 34.5599 7.26287 34.5599 6.93682V5.46727C34.5599 4.41382 33.6859 3.55677 32.6116 3.55677H31.3505C31.018 3.55677 30.748 3.29283 30.748 2.96678C30.748 2.63995 31.018 2.37523 31.3505 2.37523ZM30.687 5.33794H26.3138C25.3132 5.34803 24.5088 6.14996 24.5175 7.13199V8.1179C24.5199 8.2328 24.6141 8.32673 24.7313 8.33061H32.268C32.3859 8.32751 32.4801 8.23357 32.4841 8.1179V7.13199C32.4849 6.65767 32.298 6.20197 31.9608 5.86273C31.6259 5.52658 31.166 5.33794 30.687 5.33794ZM20.3949 9.53264H36.6059C36.9384 9.53264 37.2084 9.79736 37.2084 10.1242C37.2084 10.4502 36.9384 10.7142 36.6059 10.7142H35.7651V13.5322C35.7651 15.2385 34.3504 16.625 32.6119 16.625H31.3508C31.0175 16.625 30.7476 16.3603 30.7476 16.0334C30.7476 15.7074 31.0175 15.4427 31.3508 15.4427H32.6119C33.6862 15.4427 34.5602 14.5864 34.5602 13.5322V10.7142H32.4837V11.499C32.4916 12.4811 31.6881 13.2838 30.6866 13.2931H26.3134C25.3128 13.2838 24.5092 12.4811 24.5171 11.499V10.7142H22.4406V13.5353C22.4406 14.5856 23.3122 15.4403 24.3834 15.4419L25.6722 15.4427C26.0047 15.4427 26.2746 15.7074 26.2746 16.0334C26.2739 16.3603 26.0047 16.625 25.6714 16.625L24.3818 16.6242C22.6472 16.6227 21.2349 15.237 21.2349 13.5353V10.7142H20.3949C20.0624 10.7142 19.7917 10.4502 19.7917 10.1242C19.7917 9.79736 20.0624 9.53264 20.3949 9.53264Z" fill="#27B280"/>
</g>
<g opacity="0.8">
<path d="M14.1855 30.3367C13.9804 30.5355 13.8862 30.8228 13.9329 31.1047L14.6367 34.9997C14.6961 35.3298 14.5567 35.6639 14.2805 35.8547C14.0097 36.0526 13.6495 36.0763 13.3542 35.918L9.84791 34.0892C9.72599 34.0243 9.59062 33.9895 9.45208 33.9855H9.23754C9.16312 33.9966 9.09029 34.0204 9.02379 34.0568L5.5167 35.8942C5.34333 35.9813 5.14699 36.0122 4.95462 35.9813C4.48595 35.8927 4.17324 35.4462 4.25003 34.9751L4.95462 31.0801C5.00133 30.7959 4.90712 30.507 4.70208 30.3051L1.84337 27.5342C1.60428 27.3023 1.52116 26.954 1.63041 26.6397C1.73649 26.3262 2.00724 26.0974 2.3342 26.0459L6.26878 25.4751C6.56803 25.4442 6.83087 25.2622 6.96545 24.993L8.6992 21.4384C8.74037 21.3592 8.79341 21.2864 8.85754 21.2247L8.92878 21.1692C8.96599 21.1281 9.00874 21.094 9.05624 21.0663L9.14254 21.0347L9.27712 20.9792H9.61041C9.90808 21.0101 10.1701 21.1882 10.3071 21.4542L12.0638 24.993C12.1905 25.2519 12.4367 25.4316 12.7209 25.4751L16.6555 26.0459C16.988 26.0934 17.2658 26.323 17.3759 26.6397C17.4796 26.9571 17.3901 27.3055 17.1463 27.5342L14.1855 30.3367Z" fill="#27B280"/>
</g>
<g opacity="0.4">
<path fill-rule="evenodd" clip-rule="evenodd" d="M13.8066 4.93715C13.8383 4.99251 13.8937 5.03205 13.965 5.03205C15.865 5.03205 17.4166 6.58199 17.4166 8.47988V13.1772C17.4166 15.0751 15.865 16.625 13.965 16.625H5.03498C3.12706 16.625 1.58331 15.0751 1.58331 13.1772V8.47988C1.58331 6.58199 3.12706 5.03205 5.03498 5.03205C5.09831 5.03205 5.16165 5.00042 5.1854 4.93715L5.2329 4.84226C5.26019 4.78481 5.28821 4.7258 5.31665 4.6659C5.51917 4.23931 5.74323 3.76738 5.88206 3.49001C6.24623 2.7783 6.86373 2.38291 7.63165 2.375H11.3604C12.1283 2.38291 12.7537 2.7783 13.1179 3.49001C13.2426 3.73912 13.4326 4.1404 13.6157 4.52715C13.6534 4.60693 13.6909 4.6861 13.7275 4.76318L13.8066 4.93715ZM11.6929 12.7501C11.1308 13.3116 10.355 13.6595 9.49998 13.6595C8.66873 13.6595 7.89289 13.3353 7.29914 12.7501C6.71331 12.157 6.38873 11.3821 6.38873 10.5517C6.38081 9.72931 6.70539 8.95434 7.29123 8.36125C7.88498 7.76816 8.66873 7.44394 9.49998 7.44394C10.3312 7.44394 11.115 7.76816 11.7008 8.35334C12.2866 8.94643 12.6112 9.72931 12.6112 10.5517C12.6033 11.4137 12.255 12.1887 11.6929 12.7501ZM9.49998 8.63015C8.9854 8.63015 8.50248 8.82785 8.1304 9.19952C7.76623 9.56328 7.56832 10.0457 7.57623 10.5439V10.5518C7.57623 11.0658 7.77415 11.5482 8.13832 11.9119C8.50248 12.2757 8.9854 12.4734 9.49998 12.4734C10.5608 12.4734 11.4158 11.6114 11.4237 10.5518C11.4237 10.0378 11.2258 9.55537 10.8617 9.19161C10.4975 8.82785 10.0146 8.63015 9.49998 8.63015Z" fill="#27B280"/>
</g>
<path fill-rule="evenodd" clip-rule="evenodd" d="M25.1829 20.5833H31.8179C34.2633 20.5833 35.625 21.9925 35.625 24.4071V32.585C35.625 35.0391 34.2633 36.4166 31.8179 36.4166H25.1829C22.7763 36.4166 21.375 35.0391 21.375 32.585V24.4071C21.375 21.9925 22.7763 20.5833 25.1829 20.5833ZM25.3966 24.2725V24.2646H27.7629C28.1041 24.2646 28.3812 24.5417 28.3812 24.8813C28.3812 25.2304 28.1041 25.5075 27.7629 25.5075H25.3966C25.0554 25.5075 24.7791 25.2304 24.7791 24.89C24.7791 24.5496 25.0554 24.2725 25.3966 24.2725ZM25.3966 29.0858H31.6033C31.9437 29.0858 32.2208 28.8087 32.2208 28.4683C32.2208 28.1279 31.9437 27.85 31.6033 27.85H25.3966C25.0554 27.85 24.7791 28.1279 24.7791 28.4683C24.7791 28.8087 25.0554 29.0858 25.3966 29.0858ZM25.3967 32.7037H31.6033C31.9192 32.6721 32.1575 32.4021 32.1575 32.0862C32.1575 31.7617 31.9192 31.4925 31.6033 31.4608H25.3967C25.1592 31.4371 24.9296 31.5479 24.8029 31.7537C24.6762 31.9517 24.6762 32.2129 24.8029 32.4187C24.9296 32.6167 25.1592 32.7354 25.3967 32.7037Z" fill="#27B280"/>
</svg>
