<svg width="182" height="24" viewBox="0 0 182 24" fill="none" xmlns="http://www.w3.org/2000/svg">
<path d="M6.96147 18.5H10.0368V13.7841H12.622C15.9672 13.7841 17.9132 11.7884 17.9132 8.88352C17.9132 5.9929 16.0027 3.95455 12.7001 3.95455H6.96147V18.5ZM10.0368 11.3196V6.46875H12.1106C13.8862 6.46875 14.7456 7.43466 14.7456 8.88352C14.7456 10.3253 13.8862 11.3196 12.1248 11.3196H10.0368ZM19.8539 18.5H22.8794V12.3281C22.8794 10.9858 23.8596 10.0625 25.1948 10.0625C25.6138 10.0625 26.1891 10.1335 26.4732 10.2259V7.54119C26.2033 7.47727 25.8269 7.43466 25.5215 7.43466C24.2999 7.43466 23.2985 8.14489 22.9007 9.49432H22.7871V7.59091H19.8539V18.5ZM32.4586 18.7131C35.7683 18.7131 37.8279 16.4474 37.8279 13.0881C37.8279 9.70739 35.7683 7.44886 32.4586 7.44886C29.149 7.44886 27.0893 9.70739 27.0893 13.0881C27.0893 16.4474 29.149 18.7131 32.4586 18.7131ZM32.4728 16.3693C30.9458 16.3693 30.1646 14.9702 30.1646 13.0668C30.1646 11.1634 30.9458 9.7571 32.4728 9.7571C33.9714 9.7571 34.7527 11.1634 34.7527 13.0668C34.7527 14.9702 33.9714 16.3693 32.4728 16.3693ZM43.8152 18.6776C45.5765 18.6776 46.4927 17.6619 46.9118 16.7528H47.0396V18.5H50.0226V3.95455H47.0041V9.4233H46.9118C46.5069 8.53551 45.6333 7.44886 43.8081 7.44886C41.4146 7.44886 39.3904 9.30966 39.3904 13.0597C39.3904 16.7102 41.3294 18.6776 43.8152 18.6776ZM44.774 16.2699C43.2896 16.2699 42.4799 14.9489 42.4799 13.0455C42.4799 11.1562 43.2754 9.85653 44.774 9.85653C46.2441 9.85653 47.068 11.0994 47.068 13.0455C47.068 14.9915 46.2299 16.2699 44.774 16.2699ZM59.5059 13.8551C59.513 15.3182 58.5115 16.0852 57.4249 16.0852C56.2814 16.0852 55.5428 15.2827 55.5357 13.9972V7.59091H52.5101V14.5369C52.5172 17.0866 54.0087 18.642 56.2033 18.642C57.8439 18.642 59.0229 17.7969 59.513 16.5185H59.6266V18.5H62.5314V7.59091H59.5059V13.8551ZM69.8805 18.7131C72.7853 18.7131 74.6106 17.0085 74.7527 14.5014H71.8975C71.72 15.6662 70.9529 16.3196 69.916 16.3196C68.5027 16.3196 67.5865 15.1335 67.5865 13.0455C67.5865 10.9858 68.5098 9.80682 69.916 9.80682C71.024 9.80682 71.7342 10.5384 71.8975 11.625H74.7527C74.6248 9.10369 72.7143 7.44886 69.8663 7.44886C66.5566 7.44886 64.5112 9.7429 64.5112 13.0881C64.5112 16.4048 66.5211 18.7131 69.8805 18.7131ZM82.4924 7.59091H80.4398V4.97727H77.4142V7.59091H75.9228V9.86364H77.4142V15.5455C77.4 17.6832 78.856 18.7415 81.0506 18.6491C81.8319 18.6207 82.3858 18.4645 82.6912 18.3651L82.2154 16.1136C82.0662 16.142 81.7466 16.2131 81.4625 16.2131C80.8588 16.2131 80.4398 15.9858 80.4398 15.1477V9.86364H82.4924V7.59091ZM94.3052 18.5C98.737 18.5 101.422 15.7585 101.422 11.2131C101.422 6.68182 98.737 3.95455 94.3478 3.95455H89.149V18.5H94.3052ZM92.2243 15.8651V6.58949H94.1845C96.9118 6.58949 98.3535 7.98153 98.3535 11.2131C98.3535 14.4588 96.9118 15.8651 94.1774 15.8651H92.2243ZM108.615 18.7131C111.313 18.7131 113.132 17.3991 113.558 15.375L110.759 15.1903C110.454 16.0213 109.673 16.4545 108.664 16.4545C107.151 16.4545 106.193 15.4531 106.193 13.8267V13.8196H113.622V12.9886C113.622 9.28125 111.377 7.44886 108.494 7.44886C105.284 7.44886 103.203 9.72869 103.203 13.0952C103.203 16.554 105.255 18.7131 108.615 18.7131ZM106.193 11.9446C106.257 10.7017 107.201 9.70739 108.544 9.70739C109.857 9.70739 110.767 10.6449 110.774 11.9446H106.193ZM124.673 10.7017C124.403 8.69176 122.784 7.44886 120.028 7.44886C117.237 7.44886 115.397 8.74148 115.404 10.8438C115.397 12.4773 116.427 13.5355 118.558 13.9616L120.447 14.3381C121.399 14.5298 121.832 14.8778 121.846 15.4247C121.832 16.071 121.129 16.5327 120.07 16.5327C118.991 16.5327 118.274 16.071 118.089 15.1832L115.113 15.3395C115.397 17.4276 117.173 18.7131 120.063 18.7131C122.89 18.7131 124.914 17.2713 124.921 15.1193C124.914 13.5426 123.884 12.598 121.768 12.1648L119.794 11.767C118.778 11.5469 118.401 11.1989 118.409 10.6733C118.401 10.0199 119.14 9.59375 120.078 9.59375C121.129 9.59375 121.754 10.169 121.903 10.8722L124.673 10.7017ZM126.827 18.5H129.852V7.59091H126.827V18.5ZM128.346 6.18466C129.248 6.18466 129.987 5.49574 129.987 4.65057C129.987 3.8125 129.248 3.12358 128.346 3.12358C127.452 3.12358 126.713 3.8125 126.713 4.65057C126.713 5.49574 127.452 6.18466 128.346 6.18466ZM137.191 22.8182C140.308 22.8182 142.524 21.3977 142.524 18.6065V7.59091H139.52V9.4233H139.406C139.002 8.53551 138.114 7.44886 136.289 7.44886C133.895 7.44886 131.871 9.30966 131.871 13.0241C131.871 16.6534 133.838 18.3438 136.296 18.3438C138.036 18.3438 139.009 17.4702 139.406 16.5682H139.534V18.5639C139.534 20.0625 138.575 20.6449 137.262 20.6449C135.926 20.6449 135.252 20.0625 135.003 19.402L132.205 19.7784C132.567 21.4972 134.25 22.8182 137.191 22.8182ZM137.254 16.071C135.77 16.071 134.96 14.892 134.96 13.0099C134.96 11.1562 135.756 9.85653 137.254 9.85653C138.725 9.85653 139.548 11.0994 139.548 13.0099C139.548 14.9347 138.71 16.071 137.254 16.071ZM147.958 12.1932C147.965 10.7869 148.803 9.96307 150.024 9.96307C151.239 9.96307 151.97 10.7585 151.963 12.0938V18.5H154.989V11.554C154.989 9.01136 153.497 7.44886 151.225 7.44886C149.605 7.44886 148.433 8.24432 147.943 9.51562H147.816V7.59091H144.932V18.5H147.958V12.1932ZM162.345 18.7131C165.044 18.7131 166.862 17.3991 167.288 15.375L164.49 15.1903C164.184 16.0213 163.403 16.4545 162.395 16.4545C160.882 16.4545 159.923 15.4531 159.923 13.8267V13.8196H167.352V12.9886C167.352 9.28125 165.108 7.44886 162.224 7.44886C159.014 7.44886 156.933 9.72869 156.933 13.0952C156.933 16.554 158.986 18.7131 162.345 18.7131ZM159.923 11.9446C159.987 10.7017 160.932 9.70739 162.274 9.70739C163.588 9.70739 164.497 10.6449 164.504 11.9446H159.923ZM169.327 18.5H172.352V12.3281C172.352 10.9858 173.332 10.0625 174.667 10.0625C175.086 10.0625 175.662 10.1335 175.946 10.2259V7.54119C175.676 7.47727 175.3 7.43466 174.994 7.43466C173.773 7.43466 172.771 8.14489 172.373 9.49432H172.26V7.59091H169.327V18.5Z" fill="url(#paint0_linear)"/>
<defs>
<linearGradient id="paint0_linear" x1="0" y1="4.5" x2="46.4096" y2="91.2708" gradientUnits="userSpaceOnUse">
<stop stop-color="#DAAF20"/>
<stop offset="1" stop-color="#E46E2B"/>
</linearGradient>
</defs>
</svg>
