<svg width="395" height="68" viewBox="0 0 395 68" fill="none" xmlns="http://www.w3.org/2000/svg">
<rect opacity="0.06" x="8" width="379" height="68" rx="16" fill="#1D34A6"/>
<path d="M93.4347 26.4545V41H95.9631V30.9858H96.098L100.118 40.9574H102.007L106.027 31.0071H106.162V41H108.69V26.4545H105.466L101.148 36.9943H100.977L96.6591 26.4545H93.4347ZM113.044 45.0909C115.047 45.0909 116.205 44.0611 116.822 42.321L121.205 30.1051L118.456 30.0909L115.935 38.3295H115.821L113.307 30.0909H110.58L114.536 41.2273L114.315 41.8168C113.839 43.0597 113.087 43.1449 111.964 42.8182L111.368 44.821C111.716 44.9631 112.341 45.0909 113.044 45.0909ZM128.064 41H137.581V38.7912H130.699V34.821H137.034V32.6122H130.699V28.6634H137.524V26.4545H128.064V41ZM140.098 41H142.669V34.3665C142.669 33.0241 143.564 32.1151 144.672 32.1151C145.759 32.1151 146.505 32.8466 146.505 33.9688V41H149.026V34.196C149.026 32.9673 149.757 32.1151 151 32.1151C152.037 32.1151 152.861 32.7259 152.861 34.0753V41H155.439V33.6776C155.439 31.2415 154.033 29.9489 152.03 29.9489C150.446 29.9489 149.239 30.7301 148.756 31.9446H148.642C148.223 30.7088 147.165 29.9489 145.695 29.9489C144.232 29.9489 143.138 30.7017 142.684 31.9446H142.556V30.0909H140.098V41ZM161.187 41.2202C162.898 41.2202 163.921 40.4176 164.39 39.5014H164.475V41H166.947V33.6989C166.947 30.8153 164.596 29.9489 162.515 29.9489C160.221 29.9489 158.46 30.9716 157.891 32.9602L160.292 33.3011C160.548 32.5554 161.272 31.9162 162.529 31.9162C163.722 31.9162 164.376 32.527 164.376 33.5994V33.642C164.376 34.3807 163.602 34.4162 161.677 34.6222C159.56 34.8494 157.536 35.4815 157.536 37.9389C157.536 40.0838 159.106 41.2202 161.187 41.2202ZM161.854 39.331C160.782 39.331 160.015 38.8409 160.015 37.8963C160.015 36.9091 160.874 36.4972 162.025 36.3338C162.7 36.2415 164.049 36.071 164.383 35.8011V37.0866C164.383 38.3011 163.403 39.331 161.854 39.331ZM169.532 41H172.103V30.0909H169.532V41ZM170.825 28.5426C171.641 28.5426 172.309 27.9176 172.309 27.1506C172.309 26.3764 171.641 25.7514 170.825 25.7514C170.001 25.7514 169.333 26.3764 169.333 27.1506C169.333 27.9176 170.001 28.5426 170.825 28.5426ZM177.318 26.4545H174.747V41H177.318V26.4545Z" fill="#1D34A6"/>
<rect opacity="0.2" x="73" y="24" width="2" height="20" rx="1" fill="#1D34A6"/>
<circle opacity="0.2" cx="354" cy="34" r="12" fill="#1D34A6"/>
<path d="M349.333 34H358.667" stroke="#1D34A6" stroke-width="1.4" stroke-linecap="round" stroke-linejoin="round"/>
<path d="M354 29.3333L358.667 34L354 38.6667" stroke="#1D34A6" stroke-width="1.4" stroke-linecap="round" stroke-linejoin="round"/>
<path d="M55.0692 23.3481C53.7247 22.0008 51.8972 21.25 49.9975 21.25H36.0022C32.0342 21.25 28.8339 24.4517 28.8339 28.4042V39.5958C28.8339 43.5483 32.0483 46.75 36.0022 46.75H49.9975C53.9514 46.75 57.1672 43.5483 57.1672 39.5958V28.4042C57.1672 26.5058 56.415 24.6925 55.0692 23.3481" fill="white"/>
<path fill-rule="evenodd" clip-rule="evenodd" d="M49.9975 21.25C51.8972 21.25 53.7247 22.0008 55.0692 23.3481C56.415 24.6925 57.1672 26.5058 57.1672 28.4042V39.5958C57.1672 43.5483 53.9514 46.75 49.9975 46.75H36.0022C32.0483 46.75 28.8339 43.5483 28.8339 39.5958V28.4042C28.8339 24.4517 32.0342 21.25 36.0022 21.25H49.9975ZM52.2514 30.515L52.3647 30.4017C52.7033 29.9908 52.7033 29.3958 52.3491 28.985C52.1522 28.7739 51.8817 28.645 51.5997 28.6167C51.3022 28.6011 51.0189 28.7017 50.805 28.9L44.4172 34C43.5956 34.6814 42.4183 34.6814 41.5839 34L35.2089 28.9C34.7683 28.5742 34.1592 28.6167 33.7922 28.9992C33.4097 29.3817 33.3672 29.9908 33.6916 30.4158L33.8772 30.6L40.3231 35.6292C41.1164 36.2525 42.0783 36.5925 43.0856 36.5925C44.09 36.5925 45.0689 36.2525 45.8608 35.6292L52.2514 30.515Z" fill="#1D34A6"/>
</svg>
